<?xml version="1.0" encoding="UTF-8" standalone="no"?>
<svg
   xmlns:dc="http://purl.org/dc/elements/1.1/"
   xmlns:cc="http://creativecommons.org/ns#"
   xmlns:rdf="http://www.w3.org/1999/02/22-rdf-syntax-ns#"
   xmlns:svg="http://www.w3.org/2000/svg"
   xmlns="http://www.w3.org/2000/svg"
   xmlns:sodipodi="http://sodipodi.sourceforge.net/DTD/sodipodi-0.dtd"
   xmlns:inkscape="http://www.inkscape.org/namespaces/inkscape"
   sodipodi:docname="frise2.svg"
   id="svg14309"
   version="1.1"
   viewBox="0 0 556.69677 161.93782"
   height="161.93782mm"
   width="556.69678mm"
   inkscape:version="1.0.2-2 (e86c870879, 2021-01-15)"
   inkscape:export-filename="C:\Users\FRED\Desktop\frise2.png"
   inkscape:export-xdpi="48.462379"
   inkscape:export-ydpi="48.462379">
  <defs
     id="defs14303" />
  <sodipodi:namedview
     id="base"
     pagecolor="#ffffff"
     bordercolor="#666666"
     borderopacity="1.0"
     inkscape:pageopacity="0.0"
     inkscape:pageshadow="2"
     inkscape:zoom="0.5"
     inkscape:cx="1188.3639"
     inkscape:cy="-23.124876"
     inkscape:document-units="mm"
     inkscape:current-layer="layer1"
     inkscape:document-rotation="0"
     showgrid="false"
     inkscape:window-width="1920"
     inkscape:window-height="1001"
     inkscape:window-x="-9"
     inkscape:window-y="-9"
     inkscape:window-maximized="1"
     lock-margins="true"
     fit-margin-top="10"
     fit-margin-left="10"
     fit-margin-right="10"
     fit-margin-bottom="10">
    <inkscape:grid
       type="xygrid"
       id="grid15248"
       originx="135.64311"
       originy="-179.06601" />
  </sodipodi:namedview>
  <metadata
     id="metadata14306">
    <rdf:RDF>
      <cc:Work
         rdf:about="">
        <dc:format>image/svg+xml</dc:format>
        <dc:type
           rdf:resource="http://purl.org/dc/dcmitype/StillImage" />
        <dc:title></dc:title>
      </cc:Work>
    </rdf:RDF>
  </metadata>
  <g
     inkscape:label="Calque 1"
     inkscape:groupmode="layer"
     id="layer1"
     transform="translate(135.6431,-179.06604)">
    <g
       id="g12484">
      <path
         id="path14986-7-1"
         style="fill:none;fill-opacity:1;stroke:#a000ff;stroke-width:0.880258px;stroke-linecap:butt;stroke-linejoin:miter;stroke-miterlimit:4;stroke-dasharray:none;stroke-opacity:1"
         d="m 208.46206,317.5895 c 7.54408,2.80015 4.4308,-9.21765 -3.97973,-6.80004 -8.25275,2.37226 -9.24102,8.64822 -7.06731,14.85103 2.38314,6.80043 13.47149,5.47751 12.56316,-2.16012 -0.92481,-7.77613 -3.56543,-18.8207 -11.41249,-18.52418 -6.70679,0.25343 -13.397,23.95241 -4.83752,25.2451 6.06999,0.91671 13.0549,-6.56304 9.72543,-12.54615 -3.64472,-6.5496 -15.56169,-9.02672 -15.7185,-2.72644 -0.17967,7.21901 5.65874,-1.75686 11.60967,-1.55024 5.40608,0.18771 5.40608,2.83355 9.11729,4.21104 z"
         sodipodi:nodetypes="ssssssssss" />
      <path
         id="path14986-7-1-5"
         style="font-variation-settings:normal;opacity:1;vector-effect:none;fill:none;fill-opacity:1;stroke:#9b000e;stroke-width:0.862645px;stroke-linecap:butt;stroke-linejoin:miter;stroke-miterlimit:4;stroke-dasharray:none;stroke-dashoffset:0;stroke-opacity:1;stop-color:#000000;stop-opacity:1"
         d="m -86.261497,320.79794 c 6.87172,-2.66216 5.67321,-11.53953 -1.65718,-9.31536 -3.4872,1.0581 -8.5051,12.54666 -8.62039,14.26674 -0.48447,7.22837 11.56817,6.26627 10.59014,-2.44827 -0.87684,-7.81296 -3.0867,-18.93658 -9.88012,-18.63823 -5.806273,0.25499 -11.598183,24.0999 -4.187983,25.40055 5.254963,0.92235 7.401273,-1.06653 7.179453,-4.82088 -0.15034,-2.54432 -13.612203,-24.45274 -14.797583,-13.12941 -1.38678,13.24722 8.920803,-0.0632 13.062623,1.56836 4.43512,1.74739 5.05983,8.37601 8.31104,7.1165 z"
         sodipodi:nodetypes="ssssssssss" />
      <path
         style="fill:none;fill-opacity:0.142857;stroke:#0000ff;stroke-width:0.880258px;stroke-linecap:butt;stroke-linejoin:miter;stroke-miterlimit:4;stroke-dasharray:none;stroke-opacity:1"
         d="m 384.66974,319.80437 c 7.806,-0.782 5.615,-10.36 -1.771,-9.286 -0.486,0.07 -0.988,0.18 -1.505,0.335 -7.486,2.25 -8.834,7.784 -7.255,13.489 0.139,0.504 0.306,1.003 0.496,1.495 2.364,6.127 11.982,5.322 12.474,-0.985 0.041,-0.503 0.03,-1.039 -0.039,-1.606 -0.891,-7.262 -3.286,-17.213 -9.971,-18.2 -0.523,-0.078 -1.068,-0.088 -1.636,-0.029 -6.214,0.683 -12.268,21.136 -5.975,24.671 0.473,0.268 1.007,0.443 1.605,0.514 5.573,0.649 11.784,-5.525 10.002,-11.13 -0.158,-0.498 -0.376,-0.989 -0.658,-1.47 -3.444,-5.85 -13.486,-8.437 -15.265,-4.055 -0.194,0.486 -0.299,1.021 -0.3,1.612 0.014,4.802 4.877,5.13 9.855,5.3 2.396,0.082 4.535,0.031 6.302,-0.108 0.859,-0.035 2.696,-0.496 3.641,-0.547 z"
         id="path15476" />
      <path
         style="fill:none;fill-opacity:0.285714;stroke:#2700ff;stroke-width:0.880258px;stroke-linecap:butt;stroke-linejoin:miter;stroke-miterlimit:4;stroke-dasharray:none;stroke-opacity:1"
         d="m 355.29707,319.4353 c 7.762,-0.185 5.417,-10.17 -2.14,-8.871 -0.491,0.083 -0.991,0.202 -1.498,0.361 -7.388,2.319 -8.635,7.91 -6.98,13.634 0.147,0.506 0.324,1.001 0.529,1.482 2.522,5.963 12.104,5.014 12.374,-1.417 0.023,-0.506 0.003,-1.042 -0.068,-1.606 -0.924,-7.318 -3.385,-17.211 -10.176,-17.986 -0.524,-0.062 -1.066,-0.044 -1.626,0.054 -6.193,1.129 -12.082,21.543 -5.523,24.688 0.488,0.237 1.028,0.385 1.622,0.435 5.573,0.457 11.66,-5.798 9.671,-11.373 -0.175,-0.493 -0.407,-0.977 -0.699,-1.449 -3.601,-5.794 -13.682,-8.236 -15.189,-3.609 -0.165,0.52 -0.246,1.057 -0.232,1.619 0.15,4.655 5.084,3.71 10.129,3.882 2.539,0.087 4.537,0.212 6.23,0.276 0.862,0.09 2.541,-0.169 3.576,-0.12 z"
         id="path15478" />
      <path
         style="fill:none;fill-opacity:0.428571;stroke:#4d00ff;stroke-width:0.880258px;stroke-linecap:butt;stroke-linejoin:miter;stroke-miterlimit:4;stroke-dasharray:none;stroke-opacity:1"
         d="m 325.92461,319.06921 c 7.718,0.412 5.22,-9.98 -2.508,-8.458 -0.496,0.096 -0.994,0.224 -1.491,0.387 -7.29,2.389 -8.436,8.038 -6.705,13.779 0.154,0.51 0.343,1 0.561,1.469 2.682,5.8 12.226,4.707 12.274,-1.849 0.006,-0.508 -0.024,-1.044 -0.096,-1.604 -0.958,-7.375 -3.484,-17.209 -10.382,-17.774 -0.523,-0.046 -1.062,0.002 -1.614,0.137 -6.173,1.577 -11.897,21.952 -5.072,24.706 0.503,0.206 1.05,0.327 1.639,0.357 5.573,0.264 11.536,-6.071 9.341,-11.617 -0.193,-0.488 -0.439,-0.965 -0.74,-1.428 -3.759,-5.738 -13.88,-8.035 -15.115,-3.164 -0.135,0.556 -0.193,1.094 -0.163,1.627 0.287,4.508 5.291,2.289 10.403,2.464 2.681,0.092 4.539,0.393 6.159,0.66 0.864,0.216 2.385,0.158 3.509,0.308 z"
         id="path15480" />
      <path
         style="fill:none;fill-opacity:0.571429;stroke:#7100ff;stroke-width:0.880258px;stroke-linecap:butt;stroke-linejoin:miter;stroke-miterlimit:4;stroke-dasharray:none;stroke-opacity:1"
         d="m 296.55332,318.70196 c 7.675,1.009 5.023,-9.79 -2.8756,-8.043 -0.5015,0.109 -0.9966,0.246 -1.4852,0.412 -7.192,2.459 -8.2364,8.165 -6.4285,13.925 0.1608,0.512 0.3606,0.997 0.5929,1.456 2.841,5.636 12.3474,4.399 12.1734,-2.281 -0.01,-0.512 -0.05,-1.047 -0.124,-1.603 -0.991,-7.433 -3.583,-17.207 -10.5869,-17.562 -0.5244,-0.029 -1.0603,0.048 -1.6039,0.221 -6.1526,2.024 -11.7107,22.359 -4.6201,24.722 0.5181,0.177 1.071,0.271 1.6557,0.28 5.5726,0.072 11.4112,-6.345 9.0102,-11.861 -0.2095,-0.483 -0.4703,-0.953 -0.7807,-1.407 -3.9162,-5.683 -14.0774,-7.834 -15.0397,-2.718 -0.1058,0.59 -0.1392,1.13 -0.0951,1.634 0.4241,4.361 5.4987,0.868 10.6773,1.046 2.8242,0.098 4.5413,0.574 6.087,1.044 0.8678,0.341 2.2312,0.485 3.4432,0.735 z"
         id="path15482" />
      <path
         style="fill:none;fill-opacity:0.714286;stroke:#7900ff;stroke-width:0.880258px;stroke-linecap:butt;stroke-linejoin:miter;stroke-miterlimit:4;stroke-dasharray:none;stroke-opacity:1"
         d="m 267.18497,318.33374 c 7.6312,1.606 4.8253,-9.599 -3.2437,-7.629 -0.5066,0.122 -0.9994,0.268 -1.4788,0.439 -7.094,2.528 -8.0372,8.292 -6.1528,14.07 0.168,0.514 0.3788,0.995 0.6252,1.443 3,5.472 12.4691,4.091 12.0738,-2.714 -0.0278,-0.514 -0.0777,-1.049 -0.153,-1.602 -1.0246,-7.489 -3.6823,-17.205 -10.7921,-17.349 -0.5251,-0.013 -1.0578,0.093 -1.5932,0.304 -6.1322,2.471 -11.525,22.767 -4.1687,24.74 0.5334,0.146 1.0926,0.213 1.6726,0.202 5.5725,-0.121 11.2874,-6.618 8.6798,-12.105 -0.2267,-0.479 -0.5018,-0.941 -0.8216,-1.386 -4.0737,-5.627 -14.2748,-7.633 -14.9648,-2.273 -0.0763,0.625 -0.0858,1.166 -0.0268,1.642 0.561,4.214 5.7063,-0.553 10.9515,-0.372 2.9668,0.103 4.5435,0.755 6.0153,1.428 0.8709,0.466 2.0763,0.813 3.3773,1.162 z"
         id="path15484" />
      <path
         style="fill:none;fill-opacity:0.857143;stroke:#8c00ff;stroke-width:0.880258px;stroke-linecap:butt;stroke-linejoin:miter;stroke-miterlimit:4;stroke-dasharray:none;stroke-opacity:1"
         d="m 237.82038,317.9634 c 7.5877,2.203 4.6281,-9.408 -3.6117,-7.215 -0.5117,0.136 -1.0023,0.291 -1.4724,0.465 -6.9961,2.598 -7.8381,8.419 -5.877,14.215 0.175,0.517 0.3969,0.994 0.6573,1.43 3.1592,5.308 12.5909,3.785 11.9737,-3.145 -0.0448,-0.517 -0.1045,-1.052 -0.1813,-1.601 -1.0582,-7.546 -3.7815,-17.203 -10.9975,-17.137 -0.5257,0.004 -1.0552,0.139 -1.5823,0.388 -6.1119,2.918 -11.3393,23.175 -3.7174,24.757 0.5487,0.115 1.1141,0.155 1.6895,0.124 5.5724,-0.314 11.1633,-6.892 8.3495,-12.349 -0.244,-0.474 -0.5333,-0.929 -0.8626,-1.364 -4.2312,-5.572 -14.4721,-7.433 -14.8899,-1.829 -0.0468,0.66 -0.0323,1.203 0.0416,1.649 0.6978,4.068 5.9137,-1.972 11.2256,-1.788 3.1094,0.107 4.5456,0.934 5.9437,1.812 0.8739,0.59 1.9214,1.139 3.3112,1.588 z"
         id="path15486" />
      <path
         style="fill:none;fill-opacity:1;stroke:#c500ff;stroke-width:0.874387px;stroke-linecap:butt;stroke-linejoin:miter;stroke-miterlimit:4;stroke-dasharray:none;stroke-opacity:1"
         d="m 178.93881,317.89466 c 7.4064,2.228 4.6121,-9.227 -3.5134,-7.115 -0.0858,0.022 -0.1722,0.047 -0.2591,0.073 -6.9986,2.062 -8.8854,7.891 -7.7134,13.035 0.133,0.656 0.3147,1.305 0.5381,1.946 2.0939,6.003 11.3249,5.434 12.2823,-0.491 0.1091,-0.641 0.1272,-1.343 0.0355,-2.103 -0.8317,-6.881 -2.9807,-16.186 -8.8008,-17.976 -0.8204,-0.256 -1.7077,-0.336 -2.6649,-0.224 -5.6837,0.697 -11.2219,18.369 -6.9823,23.606 0.7019,0.843 1.6116,1.393 2.7662,1.544 2.3922,0.287 4.7364,-0.698 6.4896,-2.396 2.8238,-2.371 4.2304,-6.68 2.0833,-10.406 -2.4556,-4.244 -7.9365,-6.914 -11.4716,-6.019 -2.0676,0.489 -3.5236,1.671 -3.4886,3.827 0.1059,6.155 5.1901,-0.908 10.3785,-1.699 0.4707,-0.062 0.9408,-0.078 1.4083,-0.036 5.2001,0.403 5.2802,3.308 8.9123,4.434 z"
         id="path15588" />
      <path
         style="fill:none;fill-opacity:1;stroke:#cc00ff;stroke-width:0.868516px;stroke-linecap:butt;stroke-linejoin:miter;stroke-miterlimit:4;stroke-dasharray:none;stroke-opacity:1"
         d="m 149.42041,318.21364 c 7.347,1.684 4.73,-9.484 -3.3071,-7.36 -0.0855,0.023 -0.1715,0.048 -0.2582,0.075 -6.6067,2 -8.8156,8.402 -7.7864,13.162 0.1128,0.665 0.2836,1.316 0.5031,1.949 2.0439,5.889 11.316,5.207 12.0696,-0.928 0.0885,-0.644 0.0952,-1.345 0.003,-2.1 -0.854,-6.957 -3.0286,-16.258 -8.8921,-17.819 -0.8165,-0.224 -1.6924,-0.243 -2.6267,-0.056 -5.5866,1.176 -10.8944,18.883 -6.4139,23.662 0.7633,0.774 1.6917,1.269 2.8191,1.393 2.4489,0.221 4.6663,-0.858 6.206,-2.686 2.5027,-2.232 3.4602,-6.601 1.2145,-10.372 -2.6132,-4.359 -7.9877,-7.187 -11.2038,-5.687 -1.8772,0.811 -3.1262,2.045 -2.9982,4.03 0.377,5.669 5.6192,-1.395 10.5739,-1.964 0.4686,-0.035 0.9324,-0.023 1.3901,0.043 4.994,0.619 5.1543,3.782 8.7072,4.658 z"
         id="path15590" />
      <path
         style="fill:none;fill-opacity:1;stroke:#e200ff;stroke-width:0.862645px;stroke-linecap:butt;stroke-linejoin:miter;stroke-miterlimit:4;stroke-dasharray:none;stroke-opacity:1"
         d="m 119.90724,318.54133 c 7.2876,1.141 4.848,-9.741 -3.1009,-7.604 -0.085,0.023 -0.1708,0.049 -0.2571,0.077 -6.2148,1.939 -8.7459,8.914 -7.8594,13.289 0.0924,0.675 0.2523,1.327 0.4681,1.953 1.9937,5.773 11.307,4.979 11.8568,-1.366 0.068,-0.647 0.0633,-1.348 -0.0297,-2.097 -0.8763,-7.033 -3.0766,-16.33 -8.9834,-17.662 -0.8125,-0.191 -1.677,-0.15 -2.5885,0.111 -5.4895,1.655 -10.567001,19.397 -5.8455,23.72 0.8247,0.704 1.7717,1.144 2.872,1.241 2.5056,0.154 4.5963,-1.019 5.9224,-2.975 2.1816,-2.093 2.69,-6.523 0.3456,-10.339 -2.7706,-4.474 -8.0388,-7.46 -10.9359,-5.354 -1.6868,1.132 -2.728801,2.418 -2.507701,4.231 0.648,5.184 6.048201,-1.882 10.769201,-2.227 0.4666,-0.009 0.9239,0.03 1.3719,0.121 4.7879,0.835 5.0283,4.256 8.5021,4.881 z"
         id="path15592" />
      <path
         style="font-variation-settings:normal;opacity:1;vector-effect:none;fill:none;fill-opacity:1;stroke:#e200e0;stroke-width:0.862645px;stroke-linecap:butt;stroke-linejoin:miter;stroke-miterlimit:4;stroke-dasharray:none;stroke-dashoffset:0;stroke-opacity:1;stop-color:#000000;stop-opacity:1"
         d="m 90.401387,318.87719 c 7.2281,0.597 4.9658,-9.998 -2.8947,-7.849 -0.0847,0.023 -0.1701,0.05 -0.2561,0.079 -5.823,1.877 -8.6762,9.426 -7.9324,13.415 0.0721,0.686 0.2211,1.339 0.4331,1.957 1.9436,5.658 11.298,4.752 11.6439,-1.803 0.0476,-0.651 0.0314,-1.35 -0.0621,-2.094 -0.8987,-7.108 -3.1247,-16.402 -9.0748,-17.505 -0.8086,-0.159 -1.6617,-0.057 -2.5504,0.279 -5.3923,2.134 -10.239503,19.91 -5.277,23.776 0.8861,0.636 1.8518,1.021 2.925,1.089 2.5622,0.089 4.5261,-1.179 5.6387,-3.264 1.8604,-1.953 1.9198,-6.444 -0.5232,-10.306 -2.9281,-4.587 -8.09,-7.733 -10.6682,-5.02 -1.496403,1.453 -2.331303,2.791 -2.017203,4.432 0.9191,4.698 6.477303,-2.368 10.964603,-2.491 0.4645,0.018 0.9154,0.084 1.3537,0.201 4.5818,1.05 4.9024,4.73 8.2971,5.104 z"
         id="path15594" />
      <path
         style="font-variation-settings:normal;opacity:1;vector-effect:none;fill:none;fill-opacity:1;stroke:#e200bb;stroke-width:0.862645px;stroke-linecap:butt;stroke-linejoin:miter;stroke-miterlimit:4;stroke-dasharray:none;stroke-dashoffset:0;stroke-opacity:1;stop-color:#000000;stop-opacity:1"
         d="m 60.90553,319.19764 c 7.1687,0.055 5.0837,-10.255 -2.6884,-8.093 -0.0844,0.024 -0.1695,0.051 -0.2552,0.082 -5.4311,1.814 -8.6063,9.937 -8.0053,13.541 0.0517,0.696 0.1899,1.35 0.398,1.96 1.8936,5.544 11.2891,4.525 11.4312,-2.24 0.0271,-0.654 -6e-4,-1.353 -0.0947,-2.091 -0.921,-7.184 -3.1727,-16.474 -9.1661,-17.348 -0.8046,-0.127 -1.6463,0.036 -2.5122,0.446 -5.2952,2.613 -9.9121,20.424 -4.7086,23.834 0.9476,0.566 1.9318,0.896 2.9779,0.937 2.6189,0.023 4.4561,-1.34 5.355,-3.554 1.5394,-1.813 1.1496,-6.365 -1.392,-10.272 -3.0856,-4.702 -8.141,-8.006 -10.4003,-4.688 -1.306,1.774 -1.9338,3.165 -1.5268,4.634 1.1903,4.213 6.9064,-2.855 11.16,-2.755 0.4625,0.045 0.907,0.138 1.3355,0.28 4.3757,1.265 4.7765,5.204 8.092,5.327 z"
         id="path15596" />
      <path
         style="font-variation-settings:normal;opacity:1;vector-effect:none;fill:none;fill-opacity:1;stroke:#e20086;stroke-width:0.862645px;stroke-linecap:butt;stroke-linejoin:miter;stroke-miterlimit:4;stroke-dasharray:none;stroke-dashoffset:0;stroke-opacity:1;stop-color:#000000;stop-opacity:1"
         d="m 31.423578,319.5147 c 7.1093,-0.488 5.2016,-10.511 -2.4822,-8.337 -0.084,0.024 -0.1687,0.052 -0.2541,0.084 -5.0393,1.752 -8.5366,10.448 -8.0783,13.668 0.0314,0.706 0.1586,1.361 0.363,1.963 1.8434,5.429 11.2801,4.298 11.2184,-2.677 0.007,-0.657 -0.0326,-1.356 -0.1273,-2.088 -0.9434,-7.26 -3.2206,-16.546 -9.2573,-17.19 -0.8008,-0.095 -1.6311,0.128 -2.4742,0.613 -5.198,3.092 -9.5846,20.938 -4.1401,23.89 1.009,0.497 2.0119,0.772 3.0308,0.785 2.6756,-0.042 4.386,-1.499 5.0714,-3.842 1.2183,-1.675 0.3794,-6.287 -2.2608,-10.239 -3.2431,-4.817 -8.1922,-8.28 -10.1326,-4.355 -1.1155,2.095 -1.5363,3.538 -1.0363,4.836 1.4614,3.727 7.3355,-3.342 11.3555,-3.019 0.4603,0.071 0.8984,0.192 1.3171,0.358 4.1698,1.481 4.6506,5.678 7.887,5.55 z"
         id="path15598" />
      <path
         style="font-variation-settings:normal;opacity:1;vector-effect:none;fill:none;fill-opacity:1;stroke:#e20056;stroke-width:0.862645px;stroke-linecap:butt;stroke-linejoin:miter;stroke-miterlimit:4;stroke-dasharray:none;stroke-dashoffset:0;stroke-opacity:1;stop-color:#000000;stop-opacity:1"
         d="m 1.9620923,319.83482 c 7.0499,-1.032 5.3195,-10.769 -2.27590002,-8.582 -0.0836,0.024 -0.168,0.053 -0.2532,0.086 -4.64739998,1.69 -8.46679968,10.96 -8.15119968,13.795 0.011,0.716 0.1274,1.372 0.328,1.967 1.7933,5.314 11.2710997,4.07 11.0055997,-3.115 -0.0139,-0.661 -0.0646,-1.358 -0.1599,-2.085 -0.9657,-7.336 -3.26860002,-16.618 -9.3485997,-17.033 -0.7968,-0.063 -1.6157,0.221 -2.436,0.78 -5.1008996,3.571 -9.2571996,21.452 -3.5716996,23.947 1.0704,0.428 2.092,0.648 3.0836996,0.634 2.7323,-0.109 4.3159997,-1.66 4.7877997,-4.132 0.8972,-1.535 -0.3908,-6.208 -3.1296997,-10.205 -3.4004996,-4.931 -8.2432996,-8.553 -9.8646996,-4.022 -0.9251,2.416 -1.1389,3.911 -0.5459,5.037 1.7325,3.242 7.7647,-3.829 11.5508996,-3.283 0.4582,0.099 0.8899,0.246 1.2989,0.437 3.9636997,1.697 4.5246997,6.153 7.6818997,5.774 z"
         id="path15600" />
      <path
         style="font-variation-settings:normal;opacity:1;vector-effect:none;fill:none;fill-opacity:1;stroke:#e20025;stroke-width:0.862645px;stroke-linecap:butt;stroke-linejoin:miter;stroke-miterlimit:4;stroke-dasharray:none;stroke-dashoffset:0;stroke-opacity:1;stop-color:#000000;stop-opacity:1"
         d="m -27.477159,320.15364 c 6.9905,-1.5751 5.4373,-11.02521 -2.0697,-8.82601 -0.0833,0.0244 -0.1674,0.0539 -0.2522,0.0881 -4.2556,1.6283 -8.3971,11.47191 -8.2242,13.92091 -0.009,0.726 0.0961,1.384 0.2929,1.971 1.7433,5.199 11.2622,3.843 10.7928,-3.552 -0.0343,-0.664 -0.0965,-1.361 -0.1923,-2.082 -0.9881,-7.41131 -3.3167,-16.69031 -9.44,-16.87611 -0.7929,-0.0301 -1.6004,0.3144 -2.3978,0.9481 -5.0038,4.0496 -8.9297,21.96501 -3.0033,24.00401 1.1318,0.358 2.172,0.523 3.1367,0.482 2.7889,-0.175 4.2458,-1.821 4.5041,-4.421 0.5761,-1.396 -1.161,-6.13 -3.9985,-10.17261 -3.5581,-5.0454 -8.2945,-8.8258 -9.597,-3.6892 -0.7346,2.7375 -0.7413,4.2843 -0.0553,5.2391 2.0036,2.75671 8.1937,-4.3157 11.7462,-3.5464 0.4562,0.1248 0.8815,0.2993 1.2807,0.5155 3.7576,1.9125 4.3988,6.62661 7.4768,5.99661 v 0 z"
         id="path15602" />
      <path
         style="font-variation-settings:normal;opacity:1;vector-effect:none;fill:none;fill-opacity:1;stroke:#cc0010;stroke-width:0.862645px;stroke-linecap:butt;stroke-linejoin:miter;stroke-miterlimit:4;stroke-dasharray:none;stroke-dashoffset:0;stroke-opacity:1;stop-color:#000000;stop-opacity:1"
         d="m -56.888677,320.47508 c 6.9311,-2.1189 5.5553,-11.2826 -1.8634,-9.0709 -0.083,0.0247 -0.1667,0.0549 -0.2513,0.0903 -3.8637,1.5663 -8.3273,11.9833 -8.2971,14.0477 -0.0297,0.7363 0.0649,1.3945 0.2579,1.9743 1.6932,5.084 11.2532,3.6157 10.58,-3.9889 -0.0548,-0.6676 -0.1285,-1.3637 -0.2249,-2.0797 -1.0104,-7.4868 -3.3646,-16.7621 -9.5313,-16.7187 -0.7889,0.002 -1.585,0.4073 -2.3597,1.1155 -4.9066,4.5285 -8.6022,22.4791 -2.4349,24.0608 1.1933,0.2894 2.2522,0.3988 3.1897,0.3302 2.8456,-0.2405 4.1758,-1.981 4.2205,-4.7101 0.255,-1.257 -1.9312,-6.0516 -4.8674,-10.1392 -3.7155,-5.1599 -8.3456,-9.099 -9.3291,-3.3564 -0.5442,3.0587 -0.3439,4.6576 0.4351,5.4408 2.2747,2.2711 8.6228,-4.8026 11.9416,-3.8102 0.4541,0.1514 0.873,0.3531 1.2625,0.5942 3.5515,2.1281 4.2728,7.1005 7.2718,6.2203 z"
         id="path15604" />
    </g>
    <g
       id="g10487"
       transform="translate(-131.5191,226.57434)"
       style="fill:none">
      <path
         id="path14986"
         style="fill:none;fill-opacity:1;stroke:#ff1a00;stroke-width:0.881944px;stroke-linecap:butt;stroke-linejoin:miter;stroke-miterlimit:4;stroke-dasharray:none;stroke-opacity:1"
         d="m 24.853723,25.149 c 8.340621,-1.470348 5.415273,-16.0226748 -3.001481,-13.732972 -8.176229,2.537434 -6.526838,13.178426 -3.916113,19.253547 2.308298,7.339556 14.800156,6.409144 13.757422,-1.989171 C 30.454242,20.887634 20.849559,19.683282 14.213535,21.151837 5.9315467,22.984645 5.9223757,36.120683 14.492527,36.325624 22.751448,35.0014 23.750411,24.463065 21.469866,17.958997 20.567127,9.7363042 6.7499047,9.1862172 6.8466307,18.126191 c 0.61031,7.252294 9.6201843,8.590575 15.4411983,7.4437 0.859416,-0.11358 1.714745,-0.256795 2.565894,-0.420891 z"
         sodipodi:nodetypes="ccccsccccc" />
      <path
         id="path14986-7"
         style="fill:none;fill-opacity:1;stroke:#0000ff;stroke-width:0.880258px;stroke-linecap:butt;stroke-linejoin:miter;stroke-miterlimit:4;stroke-dasharray:none;stroke-opacity:1"
         d="m 537.64243,26.316313 c 8.37253,-1.47104 5.49617,-11.80891 -2.91436,-9.3913 -8.25275,2.37226 -9.24102,8.64822 -7.06731,14.85103 2.38314,6.80043 13.47149,5.47751 12.56316,-2.16012 -0.92481,-7.77613 -3.56543,-18.8207 -11.41249,-18.52418 -6.70679,0.25343 -13.397,23.95241 -4.83752,25.2451 6.06999,0.91671 13.04418,-6.39433 9.71471,-12.37744 -3.64472,-6.5496 -15.55097,-9.19543 -15.70778,-2.89515 -0.17967,7.21901 10.10072,7.31649 15.95438,6.22518 0.85551,-0.15949 2.85034,-0.82257 3.70721,-0.97312 z"
         sodipodi:nodetypes="ssssssssss" />
      <path
         id="path14986-7-7"
         style="fill:none;fill-opacity:1;stroke:#0000ff;stroke-width:0.880258px;stroke-linecap:butt;stroke-linejoin:miter;stroke-miterlimit:4;stroke-dasharray:none;stroke-opacity:1"
         d="m 338.91244,23.575758 c 8.37253,-1.47104 5.49617,-11.80892 -2.91436,-9.3913 -8.25275,2.37226 -9.24102,8.64822 -7.06731,14.85103 2.38314,6.80043 13.47149,5.47751 12.56316,-2.16012 -0.92481,-7.77613 -3.25414,-10.41411 -11.1012,-10.11759 -6.70679,0.25343 -13.70829,15.54582 -5.14881,16.83851 6.06999,0.91671 13.04418,-6.39433 9.71471,-12.37744 -3.64472,-6.5496 -15.55097,-9.19543 -15.70778,-2.89515 -0.17967,7.21901 10.10072,7.31649 15.95439,6.22518 0.8555,-0.15949 2.85033,-0.82257 3.7072,-0.97312 z"
         sodipodi:nodetypes="ssssssssss" />
      <path
         id="path14986-1"
         style="fill:none;fill-opacity:1;stroke:#ff1a00;stroke-width:0.881944px;stroke-linecap:butt;stroke-linejoin:miter;stroke-miterlimit:4;stroke-dasharray:none;stroke-opacity:1"
         d="m 223.58374,25.149 c 8.34062,-1.470348 5.41527,-16.0226748 -3.00148,-13.732972 -8.17623,2.537434 -6.52684,13.178426 -3.91612,19.253547 2.3083,7.339556 14.80016,6.409144 13.75742,-1.989171 -1.2393,-7.79277 -6.81698,-17.144587 -15.1602,-15.144009 -8.24854,1.977878 -10.61097,22.584288 -2.04082,22.789229 8.25892,-1.324224 9.25788,-11.862559 6.97734,-18.366627 -0.90274,-8.2226928 -14.71996,-8.7727798 -14.62324,0.167194 0.61031,7.252294 9.62019,8.590575 15.4412,7.4437 0.85942,-0.11358 1.71475,-0.256795 2.5659,-0.420891 z"
         sodipodi:nodetypes="ccccsccccc" />
      <path
         style="fill:none;fill-opacity:1;stroke:#ff1a00;stroke-width:0.881944px;stroke-linecap:butt;stroke-linejoin:miter;stroke-miterlimit:4;stroke-dasharray:none;stroke-opacity:1"
         d="m 53.276305,25.242611 c 8.0273,-1.4151 5.6165,-14.951 -2.0806,-13.91 -0.352,0.0496 -0.7104,0.1272 -1.0749,0.2349 -7.2549,2.3883 -6.5609,11.2999 -4.4388,17.4151 0.2454,0.7413 0.5261,1.438 0.8285,2.077 2.2269,6.0813 11.6839,6.0658 13.3158,0.4626 0.2779,-0.9338 0.3587,-2.0114 0.1791,-3.2255 -1.2689,-7.084 -8.9616,-9.4241 -15.5191,-8.4111 -0.6086,0.0932 -1.1999,0.2203 -1.7674,0.3768 -7.9113,2.0722 -8.1954,15.1797 -0.2551,15.9624 1.1403,-0.0454 2.1837,-0.3036 3.143,-0.7595 5.6278,-2.8906 6.2401,-11.4031 4.3745,-17.0915 -0.0969,-0.7799 -0.2994,-1.4964 -0.5872,-2.1457 -2.5353,-6.3605995 -14.0365,-6.2129 -14.1146,1.8244 0.0202,0.3815 0.0644,0.7517 0.1315,1.111 1.2766,6.4158 9.722,7.5919 15.2798,6.5038 0.044,-0.0062 0.0879,-0.0125 0.1318,-0.0188 0.8216,-0.1111 1.6396,-0.2489 2.4537,-0.4059 z"
         id="path15297" />
      <path
         style="fill:none;fill-opacity:1;stroke:#ff1a00;stroke-width:0.881944px;stroke-linecap:butt;stroke-linejoin:miter;stroke-miterlimit:4;stroke-dasharray:none;stroke-opacity:1"
         d="m 81.692426,25.320779 c 8.0795,-1.4243 5.5829,-15.1296 -2.2341,-13.8805 -0.3567,0.061 -0.7152,0.1483 -1.0754,0.2634 -7.2029,2.5089 -6.3553,11.5925 -4.172,17.6538 0.2457,0.7489 0.5403,1.4447 0.8676,2.0767 2.4834,5.8977 12.0075,5.6273 13.2122,-0.2918 0.2026,-0.9606 0.2266,-2.0463 0.0201,-3.2448 -1.4051,-7.0459 -8.6704,-10.1071 -15.3301,-8.9764 -0.6094,0.1022 -1.1989,0.2498 -1.7628,0.4363 -7.5407,2.3117 -8.0997,15.3907 -0.7892,16.7511 1.0859,0.1007 2.1299,-0.0314 3.1456,-0.4061 5.9166,-2.6056 6.6925,-11.1158 4.9121,-16.9293 -0.1083,-0.7809 -0.312,-1.5038 -0.5932,-2.1628 -2.2562,-6.6081 -13.9435,-6.6284001 -14.1873,1.353 0.0083,0.3797 0.041,0.7532 0.0976,1.121 1.1647,6.5458 9.6817,7.7548 15.2838,6.6649 0.0443,-0.0066 0.0885,-0.0133 0.1327,-0.0201 0.8279,-0.1115 1.6521,-0.2502 2.4724,-0.4084 z"
         id="path15299" />
      <path
         style="fill:none;fill-opacity:1;stroke:#ff1a00;stroke-width:0.881944px;stroke-linecap:butt;stroke-linejoin:miter;stroke-miterlimit:4;stroke-dasharray:none;stroke-opacity:1"
         d="m 110.09851,25.344437 c 8.1314,-1.4335 5.5494,-15.3082 -2.3875,-13.8509 -0.3615,0.0723 -0.7201,0.1693 -1.076,0.2917 -7.150801,2.6295 -6.1497,11.8851 -3.9052,17.8927 0.246,0.7564 0.5545,1.4512 0.9067,2.0763 2.7399,5.7141 12.3314,5.1888 13.1084,-1.0462 0.127,-0.9875 0.095,-2.0812 -0.139,-3.2641 -1.541,-7.0078 -8.3789,-10.7902 -15.1408,-9.5417 -0.6102,0.1112 -1.1979,0.2792 -1.758301,0.4959 -7.1699,2.551 -8.004,15.6015 -1.3232,17.5398 1.0315,0.2466 2.076101,0.2408 3.148201,-0.0528 6.2054,-2.3205 7.1449,-10.8285 5.4497,-16.7671 -0.1198,-0.7818 -0.3245,-1.5112 -0.5991,-2.1799 -1.9773,-6.8555 -13.850601,-7.0439998 -14.260101,0.8816 -0.0037,0.3778 0.0175,0.7547 0.0636,1.131 1.0529,6.6758 9.641401,7.9177 15.288001,6.826 0.0446,-0.0071 0.0891,-0.0142 0.1335,-0.0214 0.8342,-0.1119 1.6646,-0.2515 2.4911,-0.4109 z"
         id="path15301" />
      <path
         style="fill:none;fill-opacity:1;stroke:#ff1a00;stroke-width:0.881944px;stroke-linecap:butt;stroke-linejoin:miter;stroke-miterlimit:4;stroke-dasharray:none;stroke-opacity:1"
         d="m 138.49195,25.327982 c 8.184,-1.4428 5.516,-15.4869004 -2.541,-13.8215 -0.366,0.0838 -0.724,0.1904 -1.076,0.3201 -7.099,2.7501 -5.944,12.1778 -3.639,18.1316 0.247,0.7638 0.569,1.4578 0.946,2.076 2.997,5.5304 12.655,4.7502 13.005,-1.8007 0.052,-1.0144 -0.037,-2.116 -0.298,-3.2834 -1.677,-6.9697 -8.088,-11.4732 -14.952,-10.107 -0.611,0.1202 -1.197,0.3087 -1.753,0.5554 -6.79971,2.7905 -7.90871,15.8125 -1.858,18.3285 0.977,0.3927 2.023,0.513 3.151,0.3006 6.494,-2.0354 7.597,-10.5411 5.987,-16.6049 -0.131,-0.7828 -0.337,-1.5186 -0.605,-2.197 -1.698,-7.103 -13.75731,-7.4595004 -14.33251,0.4102 -0.0157,0.376 -0.006,0.7563 0.0297,1.1411 0.9411,6.8057 9.60081,8.0806 15.29181,6.9869 0.045,-0.0074 0.09,-0.0149 0.135,-0.0226 0.84,-0.1123 1.677,-0.2528 2.509,-0.4133 z"
         id="path15303" />
      <path
         style="fill:none;fill-opacity:1;stroke:#ff1a00;stroke-width:0.881944px;stroke-linecap:butt;stroke-linejoin:miter;stroke-miterlimit:4;stroke-dasharray:none;stroke-opacity:1"
         d="m 166.86717,25.28432 c 8.236,-1.452 5.483,-15.6655003 -2.694,-13.792 -0.371,0.0952 -0.73,0.2114 -1.077,0.3485 -7.047,2.8708 -5.739,12.4704 -3.372,18.3705 0.247,0.7713 0.583,1.4643 0.985,2.0756 3.253,5.3469 12.978,4.3117 12.901,-2.5551 -0.023,-1.0413 -0.169,-2.1509 -0.457,-3.3027 -1.813,-6.9316 -7.796,-12.1562 -14.763,-10.6722 -0.611,0.1291 -1.196,0.3381 -1.749,0.6148 -6.428,3.03 -7.812,16.0235 -2.391,19.1172 0.923,0.5388 1.968,0.7853 3.153,0.654 6.783,-1.7503 8.05,-10.2538 6.525,-16.4427 -0.142,-0.7838 -0.349,-1.5261 -0.611,-2.2141 -1.419,-7.3504 -13.664,-7.8750003 -14.405,-0.0612 -0.028,0.3742 -0.03,0.7578 -0.005,1.1511 0.83,6.9357 9.561,8.2435 15.296,7.148 0.046,-0.0078 0.091,-0.0158 0.136,-0.0238 0.847,-0.1128 1.689,-0.2542 2.528,-0.4159 z"
         id="path15305" />
      <path
         style="fill:none;fill-opacity:1;stroke:#ff1a00;stroke-width:0.881944px;stroke-linecap:butt;stroke-linejoin:miter;stroke-miterlimit:4;stroke-dasharray:none;stroke-opacity:1"
         d="m 195.22951,25.222567 c 8.288,-1.4612 5.449,-15.8440996 -2.848,-13.7625 -0.376,0.1066 -0.734,0.2325 -1.077,0.377 -6.995,2.9913 -5.533,12.763 -3.105,18.6093 0.247,0.7787 0.597,1.4709 1.024,2.0752 3.509,5.1633 13.301,3.8732 12.798,-3.3096 -0.099,-1.068 -0.302,-2.1857 -0.616,-3.3219 -1.95,-6.8935 -7.506,-12.8393 -14.575,-11.2375 -0.612,0.138 -1.195,0.3676 -1.744,0.6744 -6.058,3.2694 -7.717,16.2343 -2.925,19.9058 0.868,0.6849 1.914,1.0575 3.155,1.0074 7.072,-1.4652 8.503,-9.9665 7.063,-16.2804 -0.154,-0.7849 -0.362,-1.5336 -0.617,-2.2313 -1.14,-7.5978 -13.572,-8.2905996 -14.478,-0.5326 -0.04,0.3723 -0.053,0.7593 -0.038,1.1612 0.717,7.0656 9.52,8.4064 15.3,7.309 0.045,-0.0082 0.091,-0.0166 0.136,-0.0251 0.853,-0.1132 1.702,-0.2555 2.547,-0.4184 z"
         id="path15307" />
      <path
         style="fill:none;fill-opacity:1;stroke:#3f06bf;stroke-width:0.880679px;stroke-linecap:butt;stroke-linejoin:miter;stroke-miterlimit:4;stroke-dasharray:none;stroke-opacity:1"
         d="m 310.17273,24.117668 c 8.323,-1.4635 5.504,-12.717495 -2.811,-10.506095 -0.15,0.0394 -0.299,0.0814 -0.447,0.1259 -7.843,2.4534 -8.245,9.526095 -6.046,15.639095 0.098,0.270703 0.206,0.530203 0.323,0.778303 2.747,6.2684 13.472,4.9384 12.635,-2.603203 -0.004,-0.0352 -0.008,-0.0704 -0.013,-0.1057 -0.96,-7.4545 -3.721,-11.313495 -11.143,-11.376395 -1.102,-0.026 -2.23,0.2944 -3.334,0.8883 -5.604,3.086995 -9.179,14.394398 -3.095,16.683398 1.424,0.649 3.036,0.704 4.697,0.165 4.664,-1.768 7.547,-7.039403 5.687,-11.729203 -0.653,-1.6931 -1.732,-3.2178 -3.023,-4.453395 -3.861,-4.1512 -11.255,-4.8985 -12.264,-0.332 -0.289,1.527595 -0.057,2.874395 0.627,4.101395 2.373,4.0661 9.543,4.3949 14.339,3.6251 0.425,-0.0658 0.997,-0.2055 1.585,-0.361 0.827,-0.2034 1.698,-0.4331 2.283,-0.5395 z"
         id="path15341" />
      <path
         style="fill:none;fill-opacity:1;stroke:#7f0d7f;stroke-width:0.881101px;stroke-linecap:butt;stroke-linejoin:miter;stroke-miterlimit:4;stroke-dasharray:none;stroke-opacity:1"
         d="m 281.53606,24.523817 c 8.272,-1.456 5.512,-13.6262 -2.708,-11.6211 -0.155,0.0372 -0.31,0.0782 -0.465,0.1233 -7.829,2.4426 -7.715,10.4236 -5.453,16.5558 0.103,0.2794 0.214,0.5486 0.332,0.807 2.601,6.6257 13.915,5.4283 13.01,-2.3986 -0.005,-0.0364 -0.01,-0.0729 -0.015,-0.1095 -0.996,-7.1329 -4.189,-12.2129 -11.186,-12.6352 -1.138,-0.0923 -2.321,0.129 -3.512,0.6342 -5.825,2.5587 -9.165,14.1797 -4.196,17.6704 1.238,1.0546 2.788,1.5015 4.583,1.1583 5.094,-1.4968 7.743,-6.9262 6.469,-11.909 -0.448,-1.847 -1.295,-3.5731 -2.367,-5.0016 -2.81,-4.9085 -10.6,-5.9872 -12.499,-1.6741 -0.537,1.3739 -0.596,2.7725 -0.133,4.2427 1.765,4.8924 9.009,5.6877 14.111,4.9851 0.49,-0.0643 1.07,-0.1868 1.652,-0.3278 0.838,-0.1735 1.703,-0.3743 2.377,-0.4999 z"
         id="path15343" />
      <path
         style="fill:none;fill-opacity:1;stroke:#bf133f;stroke-width:0.881522px;stroke-linecap:butt;stroke-linejoin:miter;stroke-miterlimit:4;stroke-dasharray:none;stroke-opacity:1"
         d="m 252.57659,24.854376 c 8.223,-1.4484 5.521,-14.5349 -2.604,-12.7359 -0.16,0.0349 -0.32,0.075 -0.482,0.1205 -7.816,2.4318 -7.187,11.3212 -4.862,17.4727 0.11,0.2881 0.224,0.5669 0.343,0.8355 2.455,6.9826 14.357,5.9187 13.384,-2.1939 -0.006,-0.0377 -0.012,-0.0755 -0.017,-0.1133 -1.031,-6.8112 -4.657,-13.1122 -11.228,-13.8939 -1.175,-0.1587 -2.413,-0.0365 -3.692,0.3799 -6.045,2.0305 -9.15,13.9653 -5.297,18.6576 1.053,1.4604 2.542,2.2984 4.47,2.1514 5.524,-1.2258 7.939,-6.8128 7.252,-12.0888 -0.244,-2.0009 -0.858,-3.9282 -1.712,-5.5498 -1.758,-5.6657 -9.945,-7.0758 -12.734,-3.0161 -0.784,1.2202 -1.136,2.6706 -0.894,4.384 1.158,5.7187 8.476,6.9805 13.885,6.3452 0.553,-0.0629 1.142,-0.1683 1.717,-0.2947 0.849,-0.1435 1.709,-0.3156 2.471,-0.4604 z"
         id="path15345" />
      <path
         style="fill:none;fill-opacity:1;stroke:#0000ff;stroke-width:0.880258px;stroke-linecap:butt;stroke-linejoin:miter;stroke-miterlimit:4;stroke-dasharray:none;stroke-opacity:1"
         d="m 509.23749,25.804911 c 8.3028,-1.459 5.5386,-11.641 -2.7125,-9.434 -0.5144,0.138 -1.0064,0.295 -1.4769,0.47 -6.8941,2.577 -7.78,8.298 -5.901,14.018 0.3511,1.067 0.9061,1.957 1.59,2.676 3.6035,3.809 11.2126,2.186 10.9411,-3.831 -0.0402,-1.43 -0.188,-3.012 -0.4987,-4.655 -1.3112,-6.962 -4.1443,-13.449 -10.6412,-13.27 -0.0335,10e-4 -0.067,0.002 -0.1007,0.003 -5.4536,0.226 -10.9298,14.873 -7.9337,21.004 0.7224,1.686 1.9369,2.786 3.7483,2.923 4.7982,0.343 9.9407,-4.333 9.7651,-9.201 -0.0359,-1.163 -0.3615,-2.331 -1.0377,-3.441 -3.4342,-5.573 -12.8802,-8.08 -14.9415,-4.147 -0.284,0.532 -0.4378,1.161 -0.4325,1.894 0.0605,6.847 9.831,7.036 15.6472,6.014 0.1062,-0.018 0.213,-0.038 0.3198,-0.059 0.8699,-0.169 2.8206,-0.816 3.6649,-0.964 z"
         id="path15376" />
      <path
         style="fill:none;fill-opacity:1;stroke:#0000ff;stroke-width:0.880258px;stroke-linecap:butt;stroke-linejoin:miter;stroke-miterlimit:4;stroke-dasharray:none;stroke-opacity:1"
         d="m 480.83544,25.272512 c 8.2331,-1.447 5.5811,-11.474 -2.5106,-9.477 -0.5039,0.125 -0.9925,0.272 -1.4662,0.442 -6.91,2.482 -7.9447,8.05 -6.2224,13.683 0.321,1.046 0.8266,1.946 1.4519,2.703 3.3103,4.051 10.8273,2.765 11.0472,-2.854 0.097,-1.368 0.0419,-2.92 -0.2512,-4.577 -1.2469,-7.099 -3.996,-12.944 -10.718,-12.745 -0.033,10e-4 -0.0662,0.002 -0.0994,0.003 -5.6577,0.253 -11.3707,14.985 -7.454,20.309 0.8686,1.445 2.1578,2.307 3.9206,2.3 4.7066,-0.052 9.5147,-4.804 8.9597,-9.595 -0.121,-1.132 -0.5143,-2.255 -1.2196,-3.311 -3.6654,-5.39 -12.9744,-7.665 -14.7144,-3.495 -0.2395,0.556 -0.3554,1.181 -0.3257,1.884 0.2973,6.605 9.9318,6.761 15.6637,5.744 0.1031,-0.018 0.2087,-0.038 0.316,-0.06 0.8842,-0.178 2.7906,-0.808 3.6224,-0.954 z"
         id="path15378" />
      <path
         style="fill:none;fill-opacity:1;stroke:#0000ff;stroke-width:0.880258px;stroke-linecap:butt;stroke-linejoin:miter;stroke-miterlimit:4;stroke-dasharray:none;stroke-opacity:1"
         d="m 452.43689,24.720117 c 8.1637,-1.434 5.6237,-11.305 -2.3087,-9.519 -0.4934,0.112 -0.9786,0.249 -1.4556,0.413 -6.9259,2.387 -8.1094,7.804 -6.5436,13.349 0.2908,1.024 0.7469,1.935 1.3138,2.73 3.017,4.294 10.442,3.344 11.1533,-1.877 0.234,-1.306 0.2716,-2.829 -0.004,-4.5 -1.1825,-7.234 -3.8477,-12.438 -10.7946,-12.22 -0.0327,0.001 -0.0654,0.003 -0.0982,0.004 -5.8618,0.281 -11.8116,15.098 -6.9743,19.614 1.0148,1.205 2.3787,1.828 4.093,1.677 4.6148,-0.448 9.0885,-5.274 8.1541,-9.988 -0.206,-1.103 -0.6671,-2.179 -1.4013,-3.182 -3.8967,-5.208 -13.0688,-7.249 -14.4874,-2.842 -0.1949,0.578 -0.273,1.2 -0.2189,1.873 0.5341,6.363 10.0325,6.486 15.6802,5.474 0.1,-0.017 0.2044,-0.038 0.3121,-0.06 0.8985,-0.188 2.7608,-0.802 3.58,-0.946 z"
         id="path15380" />
      <path
         style="fill:none;fill-opacity:1;stroke:#0000ff;stroke-width:0.880258px;stroke-linecap:butt;stroke-linejoin:miter;stroke-miterlimit:4;stroke-dasharray:none;stroke-opacity:1"
         d="m 424.04352,24.128663 c 8.093,-1.423 5.666,-11.138 -2.107,-9.562 -0.483,0.099 -0.965,0.226 -1.445,0.384 -6.942,2.293 -8.274,7.558 -6.865,13.015 0.261,1.003 0.667,1.923 1.176,2.757 2.723,4.536 10.056,3.923 11.259,-0.899 0.371,-1.245 0.502,-2.738 0.243,-4.424 -1.118,-7.369 -3.699,-11.931 -10.871,-11.694 -0.032,0.001 -0.064,0.003 -0.097,0.004 -6.066,0.308 -12.2523,15.21 -6.494,18.919 1.161,0.964 2.599,1.349 4.265,1.054 4.523,-0.843 8.662,-5.744 7.349,-10.382 -0.291,-1.072 -0.82,-2.103 -1.583,-3.052 -4.128,-5.025 -13.163,-6.834 -14.261,-2.189 -0.15,0.601 -0.19,1.22 -0.112,1.862 0.771,6.122 10.133,6.211 15.697,5.205 0.097,-0.018 0.2,-0.039 0.308,-0.062 0.913,-0.197 2.731,-0.795 3.538,-0.936 z"
         id="path15382" />
      <path
         style="fill:none;fill-opacity:1;stroke:#0000ff;stroke-width:0.880258px;stroke-linecap:butt;stroke-linejoin:miter;stroke-miterlimit:4;stroke-dasharray:none;stroke-opacity:1"
         d="m 395.65634,23.763077 c 8.024,-1.41 5.708,-10.97 -1.905,-9.603 -0.472,0.084 -0.951,0.202 -1.434,0.354 -6.958,2.199 -8.439,7.312 -7.186,12.681 0.23,0.981 0.587,1.912 1.037,2.784 2.431,4.778 9.671,4.503 11.366,0.078 0.508,-1.183 0.731,-2.647 0.49,-4.346 -1.053,-7.505 -3.551,-11.426 -10.948,-11.169 -0.031,10e-4 -0.063,0.003 -0.095,0.004 -6.27,0.336 -12.694,15.323 -6.015,18.224 1.307,0.723 2.82,0.87 4.438,0.432 4.431,-1.239 8.236,-6.216 6.543,-10.776 -0.376,-1.042 -0.973,-2.027 -1.765,-2.924 -4.359,-4.842 -13.258,-6.417 -14.033,-1.536 -0.106,0.624 -0.109,1.24 -0.006,1.852 1.008,5.88 10.234,5.935 15.713,4.935 0.094,-0.017 0.196,-0.038 0.305,-0.062 0.927,-0.208 2.701,-0.788 3.495,-0.928 z"
         id="path15384" />
      <path
         style="fill:none;fill-opacity:1;stroke:#0000ff;stroke-width:0.880258px;stroke-linecap:butt;stroke-linejoin:miter;stroke-miterlimit:4;stroke-dasharray:none;stroke-opacity:1"
         d="m 367.27783,23.710564 c 7.955,-1.398 5.751,-10.802 -1.703,-9.646 -0.462,0.071 -0.937,0.179 -1.423,0.325 -6.974,2.104 -8.604,7.065 -7.508,12.346 0.2,0.961 0.508,1.902 0.9,2.813 2.137,5.02 9.286,5.081 11.471,1.055 0.646,-1.122 0.961,-2.556 0.738,-4.27 -0.989,-7.64 -3.402,-10.92 -11.024,-10.643 -0.032,10e-4 -0.063,0.003 -0.095,0.004 -6.474,0.363 -13.134,15.435 -5.535,17.529 1.454,0.483 3.041,0.391 4.61,-0.191 4.34,-1.635 7.81,-6.686 5.738,-11.169 -0.461,-1.012 -1.126,-1.952 -1.947,-2.795 -4.59,-4.659 -13.352,-6.001 -13.806,-0.883 -0.061,0.647 -0.026,1.259 0.101,1.841 1.245,5.638 10.335,5.66 15.73,4.665 0.091,-0.017 0.192,-0.038 0.3,-0.063 0.942,-0.217 2.672,-0.781 3.453,-0.918 z"
         id="path15386" />
    </g>
  </g>
</svg>
