<?xml version="1.0" encoding="UTF-8" standalone="no"?>
<svg
   xmlns:dc="http://purl.org/dc/elements/1.1/"
   xmlns:cc="http://creativecommons.org/ns#"
   xmlns:rdf="http://www.w3.org/1999/02/22-rdf-syntax-ns#"
   xmlns:svg="http://www.w3.org/2000/svg"
   xmlns="http://www.w3.org/2000/svg"
   xmlns:sodipodi="http://sodipodi.sourceforge.net/DTD/sodipodi-0.dtd"
   xmlns:inkscape="http://www.inkscape.org/namespaces/inkscape"
   width="2048.4602"
   height="119.06342"
   viewBox="0 0 541.98842 31.502196"
   version="1.1"
   id="svg10525"
   inkscape:version="1.0.2-2 (e86c870879, 2021-01-15)"
   sodipodi:docname="frise1.svg">
  <defs
     id="defs10519" />
  <sodipodi:namedview
     id="base"
     pagecolor="#ffffff"
     bordercolor="#666666"
     borderopacity="1.0"
     inkscape:pageopacity="0.0"
     inkscape:pageshadow="2"
     inkscape:zoom="0.35"
     inkscape:cx="918.5158"
     inkscape:cy="753.81742"
     inkscape:document-units="mm"
     inkscape:current-layer="layer1"
     inkscape:document-rotation="0"
     showgrid="false"
     units="px"
     fit-margin-top="10"
     lock-margins="true"
     fit-margin-left="10"
     fit-margin-right="10"
     fit-margin-bottom="10"
     inkscape:window-width="1920"
     inkscape:window-height="1001"
     inkscape:window-x="-9"
     inkscape:window-y="-9"
     inkscape:window-maximized="1" />
  <metadata
     id="metadata10522">
    <rdf:RDF>
      <cc:Work
         rdf:about="">
        <dc:format>image/svg+xml</dc:format>
        <dc:type
           rdf:resource="http://purl.org/dc/dcmitype/StillImage" />
        <dc:title></dc:title>
      </cc:Work>
    </rdf:RDF>
  </metadata>
  <g
     inkscape:label="Calque 1"
     inkscape:groupmode="layer"
     id="layer1"
     transform="translate(137.19064,51.280859)">
    <g
       id="g10487"
       transform="translate(-140.94997,-59.280891)"
       style="fill:none">
      <path
         id="path14986"
         style="fill:none;fill-opacity:1;stroke:#ff1a00;stroke-width:0.881944px;stroke-linecap:butt;stroke-linejoin:miter;stroke-miterlimit:4;stroke-dasharray:none;stroke-opacity:1"
         d="m 24.853723,25.149 c 8.340621,-1.470348 5.415273,-16.0226748 -3.001481,-13.732972 -8.176229,2.537434 -6.526838,13.178426 -3.916113,19.253547 2.308298,7.339556 14.800156,6.409144 13.757422,-1.989171 C 30.454242,20.887634 20.849559,19.683282 14.213535,21.151837 5.9315467,22.984645 5.9223757,36.120683 14.492527,36.325624 22.751448,35.0014 23.750411,24.463065 21.469866,17.958997 20.567127,9.7363042 6.7499047,9.1862172 6.8466307,18.126191 c 0.61031,7.252294 9.6201843,8.590575 15.4411983,7.4437 0.859416,-0.11358 1.714745,-0.256795 2.565894,-0.420891 z"
         sodipodi:nodetypes="ccccsccccc" />
      <path
         id="path14986-7"
         style="fill:none;fill-opacity:1;stroke:#0000ff;stroke-width:0.880258px;stroke-linecap:butt;stroke-linejoin:miter;stroke-miterlimit:4;stroke-dasharray:none;stroke-opacity:1"
         d="m 537.64243,26.316313 c 8.37253,-1.47104 5.49617,-11.80891 -2.91436,-9.3913 -8.25275,2.37226 -9.24102,8.64822 -7.06731,14.85103 2.38314,6.80043 13.47149,5.47751 12.56316,-2.16012 -0.92481,-7.77613 -3.56543,-18.8207 -11.41249,-18.52418 -6.70679,0.25343 -13.397,23.95241 -4.83752,25.2451 6.06999,0.91671 13.04418,-6.39433 9.71471,-12.37744 -3.64472,-6.5496 -15.55097,-9.19543 -15.70778,-2.89515 -0.17967,7.21901 10.10072,7.31649 15.95438,6.22518 0.85551,-0.15949 2.85034,-0.82257 3.70721,-0.97312 z"
         sodipodi:nodetypes="ssssssssss" />
      <path
         id="path14986-7-7"
         style="fill:none;fill-opacity:1;stroke:#0000ff;stroke-width:0.880258px;stroke-linecap:butt;stroke-linejoin:miter;stroke-miterlimit:4;stroke-dasharray:none;stroke-opacity:1"
         d="m 338.91244,23.575758 c 8.37253,-1.47104 5.49617,-11.80892 -2.91436,-9.3913 -8.25275,2.37226 -9.24102,8.64822 -7.06731,14.85103 2.38314,6.80043 13.47149,5.47751 12.56316,-2.16012 -0.92481,-7.77613 -3.25414,-10.41411 -11.1012,-10.11759 -6.70679,0.25343 -13.70829,15.54582 -5.14881,16.83851 6.06999,0.91671 13.04418,-6.39433 9.71471,-12.37744 -3.64472,-6.5496 -15.55097,-9.19543 -15.70778,-2.89515 -0.17967,7.21901 10.10072,7.31649 15.95439,6.22518 0.8555,-0.15949 2.85033,-0.82257 3.7072,-0.97312 z"
         sodipodi:nodetypes="ssssssssss" />
      <path
         id="path14986-1"
         style="fill:none;fill-opacity:1;stroke:#ff1a00;stroke-width:0.881944px;stroke-linecap:butt;stroke-linejoin:miter;stroke-miterlimit:4;stroke-dasharray:none;stroke-opacity:1"
         d="m 223.58374,25.149 c 8.34062,-1.470348 5.41527,-16.0226748 -3.00148,-13.732972 -8.17623,2.537434 -6.52684,13.178426 -3.91612,19.253547 2.3083,7.339556 14.80016,6.409144 13.75742,-1.989171 -1.2393,-7.79277 -6.81698,-17.144587 -15.1602,-15.144009 -8.24854,1.977878 -10.61097,22.584288 -2.04082,22.789229 8.25892,-1.324224 9.25788,-11.862559 6.97734,-18.366627 -0.90274,-8.2226928 -14.71996,-8.7727798 -14.62324,0.167194 0.61031,7.252294 9.62019,8.590575 15.4412,7.4437 0.85942,-0.11358 1.71475,-0.256795 2.5659,-0.420891 z"
         sodipodi:nodetypes="ccccsccccc" />
      <path
         style="fill:none;fill-opacity:1;stroke:#ff1a00;stroke-width:0.881944px;stroke-linecap:butt;stroke-linejoin:miter;stroke-miterlimit:4;stroke-dasharray:none;stroke-opacity:1"
         d="m 53.276305,25.242611 c 8.0273,-1.4151 5.6165,-14.951 -2.0806,-13.91 -0.352,0.0496 -0.7104,0.1272 -1.0749,0.2349 -7.2549,2.3883 -6.5609,11.2999 -4.4388,17.4151 0.2454,0.7413 0.5261,1.438 0.8285,2.077 2.2269,6.0813 11.6839,6.0658 13.3158,0.4626 0.2779,-0.9338 0.3587,-2.0114 0.1791,-3.2255 -1.2689,-7.084 -8.9616,-9.4241 -15.5191,-8.4111 -0.6086,0.0932 -1.1999,0.2203 -1.7674,0.3768 -7.9113,2.0722 -8.1954,15.1797 -0.2551,15.9624 1.1403,-0.0454 2.1837,-0.3036 3.143,-0.7595 5.6278,-2.8906 6.2401,-11.4031 4.3745,-17.0915 -0.0969,-0.7799 -0.2994,-1.4964 -0.5872,-2.1457 -2.5353,-6.3605995 -14.0365,-6.2129 -14.1146,1.8244 0.0202,0.3815 0.0644,0.7517 0.1315,1.111 1.2766,6.4158 9.722,7.5919 15.2798,6.5038 0.044,-0.0062 0.0879,-0.0125 0.1318,-0.0188 0.8216,-0.1111 1.6396,-0.2489 2.4537,-0.4059 z"
         id="path15297" />
      <path
         style="fill:none;fill-opacity:1;stroke:#ff1a00;stroke-width:0.881944px;stroke-linecap:butt;stroke-linejoin:miter;stroke-miterlimit:4;stroke-dasharray:none;stroke-opacity:1"
         d="m 81.692426,25.320779 c 8.0795,-1.4243 5.5829,-15.1296 -2.2341,-13.8805 -0.3567,0.061 -0.7152,0.1483 -1.0754,0.2634 -7.2029,2.5089 -6.3553,11.5925 -4.172,17.6538 0.2457,0.7489 0.5403,1.4447 0.8676,2.0767 2.4834,5.8977 12.0075,5.6273 13.2122,-0.2918 0.2026,-0.9606 0.2266,-2.0463 0.0201,-3.2448 -1.4051,-7.0459 -8.6704,-10.1071 -15.3301,-8.9764 -0.6094,0.1022 -1.1989,0.2498 -1.7628,0.4363 -7.5407,2.3117 -8.0997,15.3907 -0.7892,16.7511 1.0859,0.1007 2.1299,-0.0314 3.1456,-0.4061 5.9166,-2.6056 6.6925,-11.1158 4.9121,-16.9293 -0.1083,-0.7809 -0.312,-1.5038 -0.5932,-2.1628 -2.2562,-6.6081 -13.9435,-6.6284001 -14.1873,1.353 0.0083,0.3797 0.041,0.7532 0.0976,1.121 1.1647,6.5458 9.6817,7.7548 15.2838,6.6649 0.0443,-0.0066 0.0885,-0.0133 0.1327,-0.0201 0.8279,-0.1115 1.6521,-0.2502 2.4724,-0.4084 z"
         id="path15299" />
      <path
         style="fill:none;fill-opacity:1;stroke:#ff1a00;stroke-width:0.881944px;stroke-linecap:butt;stroke-linejoin:miter;stroke-miterlimit:4;stroke-dasharray:none;stroke-opacity:1"
         d="m 110.09851,25.344437 c 8.1314,-1.4335 5.5494,-15.3082 -2.3875,-13.8509 -0.3615,0.0723 -0.7201,0.1693 -1.076,0.2917 -7.150801,2.6295 -6.1497,11.8851 -3.9052,17.8927 0.246,0.7564 0.5545,1.4512 0.9067,2.0763 2.7399,5.7141 12.3314,5.1888 13.1084,-1.0462 0.127,-0.9875 0.095,-2.0812 -0.139,-3.2641 -1.541,-7.0078 -8.3789,-10.7902 -15.1408,-9.5417 -0.6102,0.1112 -1.1979,0.2792 -1.758301,0.4959 -7.1699,2.551 -8.004,15.6015 -1.3232,17.5398 1.0315,0.2466 2.076101,0.2408 3.148201,-0.0528 6.2054,-2.3205 7.1449,-10.8285 5.4497,-16.7671 -0.1198,-0.7818 -0.3245,-1.5112 -0.5991,-2.1799 -1.9773,-6.8555 -13.850601,-7.0439998 -14.260101,0.8816 -0.0037,0.3778 0.0175,0.7547 0.0636,1.131 1.0529,6.6758 9.641401,7.9177 15.288001,6.826 0.0446,-0.0071 0.0891,-0.0142 0.1335,-0.0214 0.8342,-0.1119 1.6646,-0.2515 2.4911,-0.4109 z"
         id="path15301" />
      <path
         style="fill:none;fill-opacity:1;stroke:#ff1a00;stroke-width:0.881944px;stroke-linecap:butt;stroke-linejoin:miter;stroke-miterlimit:4;stroke-dasharray:none;stroke-opacity:1"
         d="m 138.49195,25.327982 c 8.184,-1.4428 5.516,-15.4869004 -2.541,-13.8215 -0.366,0.0838 -0.724,0.1904 -1.076,0.3201 -7.099,2.7501 -5.944,12.1778 -3.639,18.1316 0.247,0.7638 0.569,1.4578 0.946,2.076 2.997,5.5304 12.655,4.7502 13.005,-1.8007 0.052,-1.0144 -0.037,-2.116 -0.298,-3.2834 -1.677,-6.9697 -8.088,-11.4732 -14.952,-10.107 -0.611,0.1202 -1.197,0.3087 -1.753,0.5554 -6.79971,2.7905 -7.90871,15.8125 -1.858,18.3285 0.977,0.3927 2.023,0.513 3.151,0.3006 6.494,-2.0354 7.597,-10.5411 5.987,-16.6049 -0.131,-0.7828 -0.337,-1.5186 -0.605,-2.197 -1.698,-7.103 -13.75731,-7.4595004 -14.33251,0.4102 -0.0157,0.376 -0.006,0.7563 0.0297,1.1411 0.9411,6.8057 9.60081,8.0806 15.29181,6.9869 0.045,-0.0074 0.09,-0.0149 0.135,-0.0226 0.84,-0.1123 1.677,-0.2528 2.509,-0.4133 z"
         id="path15303" />
      <path
         style="fill:none;fill-opacity:1;stroke:#ff1a00;stroke-width:0.881944px;stroke-linecap:butt;stroke-linejoin:miter;stroke-miterlimit:4;stroke-dasharray:none;stroke-opacity:1"
         d="m 166.86717,25.28432 c 8.236,-1.452 5.483,-15.6655003 -2.694,-13.792 -0.371,0.0952 -0.73,0.2114 -1.077,0.3485 -7.047,2.8708 -5.739,12.4704 -3.372,18.3705 0.247,0.7713 0.583,1.4643 0.985,2.0756 3.253,5.3469 12.978,4.3117 12.901,-2.5551 -0.023,-1.0413 -0.169,-2.1509 -0.457,-3.3027 -1.813,-6.9316 -7.796,-12.1562 -14.763,-10.6722 -0.611,0.1291 -1.196,0.3381 -1.749,0.6148 -6.428,3.03 -7.812,16.0235 -2.391,19.1172 0.923,0.5388 1.968,0.7853 3.153,0.654 6.783,-1.7503 8.05,-10.2538 6.525,-16.4427 -0.142,-0.7838 -0.349,-1.5261 -0.611,-2.2141 -1.419,-7.3504 -13.664,-7.8750003 -14.405,-0.0612 -0.028,0.3742 -0.03,0.7578 -0.005,1.1511 0.83,6.9357 9.561,8.2435 15.296,7.148 0.046,-0.0078 0.091,-0.0158 0.136,-0.0238 0.847,-0.1128 1.689,-0.2542 2.528,-0.4159 z"
         id="path15305" />
      <path
         style="fill:none;fill-opacity:1;stroke:#ff1a00;stroke-width:0.881944px;stroke-linecap:butt;stroke-linejoin:miter;stroke-miterlimit:4;stroke-dasharray:none;stroke-opacity:1"
         d="m 195.22951,25.222567 c 8.288,-1.4612 5.449,-15.8440996 -2.848,-13.7625 -0.376,0.1066 -0.734,0.2325 -1.077,0.377 -6.995,2.9913 -5.533,12.763 -3.105,18.6093 0.247,0.7787 0.597,1.4709 1.024,2.0752 3.509,5.1633 13.301,3.8732 12.798,-3.3096 -0.099,-1.068 -0.302,-2.1857 -0.616,-3.3219 -1.95,-6.8935 -7.506,-12.8393 -14.575,-11.2375 -0.612,0.138 -1.195,0.3676 -1.744,0.6744 -6.058,3.2694 -7.717,16.2343 -2.925,19.9058 0.868,0.6849 1.914,1.0575 3.155,1.0074 7.072,-1.4652 8.503,-9.9665 7.063,-16.2804 -0.154,-0.7849 -0.362,-1.5336 -0.617,-2.2313 -1.14,-7.5978 -13.572,-8.2905996 -14.478,-0.5326 -0.04,0.3723 -0.053,0.7593 -0.038,1.1612 0.717,7.0656 9.52,8.4064 15.3,7.309 0.045,-0.0082 0.091,-0.0166 0.136,-0.0251 0.853,-0.1132 1.702,-0.2555 2.547,-0.4184 z"
         id="path15307" />
      <path
         style="fill:none;fill-opacity:1;stroke:#3f06bf;stroke-width:0.880679px;stroke-linecap:butt;stroke-linejoin:miter;stroke-miterlimit:4;stroke-dasharray:none;stroke-opacity:1"
         d="m 310.17273,24.117668 c 8.323,-1.4635 5.504,-12.717495 -2.811,-10.506095 -0.15,0.0394 -0.299,0.0814 -0.447,0.1259 -7.843,2.4534 -8.245,9.526095 -6.046,15.639095 0.098,0.270703 0.206,0.530203 0.323,0.778303 2.747,6.2684 13.472,4.9384 12.635,-2.603203 -0.004,-0.0352 -0.008,-0.0704 -0.013,-0.1057 -0.96,-7.4545 -3.721,-11.313495 -11.143,-11.376395 -1.102,-0.026 -2.23,0.2944 -3.334,0.8883 -5.604,3.086995 -9.179,14.394398 -3.095,16.683398 1.424,0.649 3.036,0.704 4.697,0.165 4.664,-1.768 7.547,-7.039403 5.687,-11.729203 -0.653,-1.6931 -1.732,-3.2178 -3.023,-4.453395 -3.861,-4.1512 -11.255,-4.8985 -12.264,-0.332 -0.289,1.527595 -0.057,2.874395 0.627,4.101395 2.373,4.0661 9.543,4.3949 14.339,3.6251 0.425,-0.0658 0.997,-0.2055 1.585,-0.361 0.827,-0.2034 1.698,-0.4331 2.283,-0.5395 z"
         id="path15341" />
      <path
         style="fill:none;fill-opacity:1;stroke:#7f0d7f;stroke-width:0.881101px;stroke-linecap:butt;stroke-linejoin:miter;stroke-miterlimit:4;stroke-dasharray:none;stroke-opacity:1"
         d="m 281.53606,24.523817 c 8.272,-1.456 5.512,-13.6262 -2.708,-11.6211 -0.155,0.0372 -0.31,0.0782 -0.465,0.1233 -7.829,2.4426 -7.715,10.4236 -5.453,16.5558 0.103,0.2794 0.214,0.5486 0.332,0.807 2.601,6.6257 13.915,5.4283 13.01,-2.3986 -0.005,-0.0364 -0.01,-0.0729 -0.015,-0.1095 -0.996,-7.1329 -4.189,-12.2129 -11.186,-12.6352 -1.138,-0.0923 -2.321,0.129 -3.512,0.6342 -5.825,2.5587 -9.165,14.1797 -4.196,17.6704 1.238,1.0546 2.788,1.5015 4.583,1.1583 5.094,-1.4968 7.743,-6.9262 6.469,-11.909 -0.448,-1.847 -1.295,-3.5731 -2.367,-5.0016 -2.81,-4.9085 -10.6,-5.9872 -12.499,-1.6741 -0.537,1.3739 -0.596,2.7725 -0.133,4.2427 1.765,4.8924 9.009,5.6877 14.111,4.9851 0.49,-0.0643 1.07,-0.1868 1.652,-0.3278 0.838,-0.1735 1.703,-0.3743 2.377,-0.4999 z"
         id="path15343" />
      <path
         style="fill:none;fill-opacity:1;stroke:#bf133f;stroke-width:0.881522px;stroke-linecap:butt;stroke-linejoin:miter;stroke-miterlimit:4;stroke-dasharray:none;stroke-opacity:1"
         d="m 252.57659,24.854376 c 8.223,-1.4484 5.521,-14.5349 -2.604,-12.7359 -0.16,0.0349 -0.32,0.075 -0.482,0.1205 -7.816,2.4318 -7.187,11.3212 -4.862,17.4727 0.11,0.2881 0.224,0.5669 0.343,0.8355 2.455,6.9826 14.357,5.9187 13.384,-2.1939 -0.006,-0.0377 -0.012,-0.0755 -0.017,-0.1133 -1.031,-6.8112 -4.657,-13.1122 -11.228,-13.8939 -1.175,-0.1587 -2.413,-0.0365 -3.692,0.3799 -6.045,2.0305 -9.15,13.9653 -5.297,18.6576 1.053,1.4604 2.542,2.2984 4.47,2.1514 5.524,-1.2258 7.939,-6.8128 7.252,-12.0888 -0.244,-2.0009 -0.858,-3.9282 -1.712,-5.5498 -1.758,-5.6657 -9.945,-7.0758 -12.734,-3.0161 -0.784,1.2202 -1.136,2.6706 -0.894,4.384 1.158,5.7187 8.476,6.9805 13.885,6.3452 0.553,-0.0629 1.142,-0.1683 1.717,-0.2947 0.849,-0.1435 1.709,-0.3156 2.471,-0.4604 z"
         id="path15345" />
      <path
         style="fill:none;fill-opacity:1;stroke:#0000ff;stroke-width:0.880258px;stroke-linecap:butt;stroke-linejoin:miter;stroke-miterlimit:4;stroke-dasharray:none;stroke-opacity:1"
         d="m 509.23749,25.804911 c 8.3028,-1.459 5.5386,-11.641 -2.7125,-9.434 -0.5144,0.138 -1.0064,0.295 -1.4769,0.47 -6.8941,2.577 -7.78,8.298 -5.901,14.018 0.3511,1.067 0.9061,1.957 1.59,2.676 3.6035,3.809 11.2126,2.186 10.9411,-3.831 -0.0402,-1.43 -0.188,-3.012 -0.4987,-4.655 -1.3112,-6.962 -4.1443,-13.449 -10.6412,-13.27 -0.0335,10e-4 -0.067,0.002 -0.1007,0.003 -5.4536,0.226 -10.9298,14.873 -7.9337,21.004 0.7224,1.686 1.9369,2.786 3.7483,2.923 4.7982,0.343 9.9407,-4.333 9.7651,-9.201 -0.0359,-1.163 -0.3615,-2.331 -1.0377,-3.441 -3.4342,-5.573 -12.8802,-8.08 -14.9415,-4.147 -0.284,0.532 -0.4378,1.161 -0.4325,1.894 0.0605,6.847 9.831,7.036 15.6472,6.014 0.1062,-0.018 0.213,-0.038 0.3198,-0.059 0.8699,-0.169 2.8206,-0.816 3.6649,-0.964 z"
         id="path15376" />
      <path
         style="fill:none;fill-opacity:1;stroke:#0000ff;stroke-width:0.880258px;stroke-linecap:butt;stroke-linejoin:miter;stroke-miterlimit:4;stroke-dasharray:none;stroke-opacity:1"
         d="m 480.83544,25.272512 c 8.2331,-1.447 5.5811,-11.474 -2.5106,-9.477 -0.5039,0.125 -0.9925,0.272 -1.4662,0.442 -6.91,2.482 -7.9447,8.05 -6.2224,13.683 0.321,1.046 0.8266,1.946 1.4519,2.703 3.3103,4.051 10.8273,2.765 11.0472,-2.854 0.097,-1.368 0.0419,-2.92 -0.2512,-4.577 -1.2469,-7.099 -3.996,-12.944 -10.718,-12.745 -0.033,10e-4 -0.0662,0.002 -0.0994,0.003 -5.6577,0.253 -11.3707,14.985 -7.454,20.309 0.8686,1.445 2.1578,2.307 3.9206,2.3 4.7066,-0.052 9.5147,-4.804 8.9597,-9.595 -0.121,-1.132 -0.5143,-2.255 -1.2196,-3.311 -3.6654,-5.39 -12.9744,-7.665 -14.7144,-3.495 -0.2395,0.556 -0.3554,1.181 -0.3257,1.884 0.2973,6.605 9.9318,6.761 15.6637,5.744 0.1031,-0.018 0.2087,-0.038 0.316,-0.06 0.8842,-0.178 2.7906,-0.808 3.6224,-0.954 z"
         id="path15378" />
      <path
         style="fill:none;fill-opacity:1;stroke:#0000ff;stroke-width:0.880258px;stroke-linecap:butt;stroke-linejoin:miter;stroke-miterlimit:4;stroke-dasharray:none;stroke-opacity:1"
         d="m 452.43689,24.720117 c 8.1637,-1.434 5.6237,-11.305 -2.3087,-9.519 -0.4934,0.112 -0.9786,0.249 -1.4556,0.413 -6.9259,2.387 -8.1094,7.804 -6.5436,13.349 0.2908,1.024 0.7469,1.935 1.3138,2.73 3.017,4.294 10.442,3.344 11.1533,-1.877 0.234,-1.306 0.2716,-2.829 -0.004,-4.5 -1.1825,-7.234 -3.8477,-12.438 -10.7946,-12.22 -0.0327,0.001 -0.0654,0.003 -0.0982,0.004 -5.8618,0.281 -11.8116,15.098 -6.9743,19.614 1.0148,1.205 2.3787,1.828 4.093,1.677 4.6148,-0.448 9.0885,-5.274 8.1541,-9.988 -0.206,-1.103 -0.6671,-2.179 -1.4013,-3.182 -3.8967,-5.208 -13.0688,-7.249 -14.4874,-2.842 -0.1949,0.578 -0.273,1.2 -0.2189,1.873 0.5341,6.363 10.0325,6.486 15.6802,5.474 0.1,-0.017 0.2044,-0.038 0.3121,-0.06 0.8985,-0.188 2.7608,-0.802 3.58,-0.946 z"
         id="path15380" />
      <path
         style="fill:none;fill-opacity:1;stroke:#0000ff;stroke-width:0.880258px;stroke-linecap:butt;stroke-linejoin:miter;stroke-miterlimit:4;stroke-dasharray:none;stroke-opacity:1"
         d="m 424.04352,24.128663 c 8.093,-1.423 5.666,-11.138 -2.107,-9.562 -0.483,0.099 -0.965,0.226 -1.445,0.384 -6.942,2.293 -8.274,7.558 -6.865,13.015 0.261,1.003 0.667,1.923 1.176,2.757 2.723,4.536 10.056,3.923 11.259,-0.899 0.371,-1.245 0.502,-2.738 0.243,-4.424 -1.118,-7.369 -3.699,-11.931 -10.871,-11.694 -0.032,0.001 -0.064,0.003 -0.097,0.004 -6.066,0.308 -12.2523,15.21 -6.494,18.919 1.161,0.964 2.599,1.349 4.265,1.054 4.523,-0.843 8.662,-5.744 7.349,-10.382 -0.291,-1.072 -0.82,-2.103 -1.583,-3.052 -4.128,-5.025 -13.163,-6.834 -14.261,-2.189 -0.15,0.601 -0.19,1.22 -0.112,1.862 0.771,6.122 10.133,6.211 15.697,5.205 0.097,-0.018 0.2,-0.039 0.308,-0.062 0.913,-0.197 2.731,-0.795 3.538,-0.936 z"
         id="path15382" />
      <path
         style="fill:none;fill-opacity:1;stroke:#0000ff;stroke-width:0.880258px;stroke-linecap:butt;stroke-linejoin:miter;stroke-miterlimit:4;stroke-dasharray:none;stroke-opacity:1"
         d="m 395.65634,23.763077 c 8.024,-1.41 5.708,-10.97 -1.905,-9.603 -0.472,0.084 -0.951,0.202 -1.434,0.354 -6.958,2.199 -8.439,7.312 -7.186,12.681 0.23,0.981 0.587,1.912 1.037,2.784 2.431,4.778 9.671,4.503 11.366,0.078 0.508,-1.183 0.731,-2.647 0.49,-4.346 -1.053,-7.505 -3.551,-11.426 -10.948,-11.169 -0.031,10e-4 -0.063,0.003 -0.095,0.004 -6.27,0.336 -12.694,15.323 -6.015,18.224 1.307,0.723 2.82,0.87 4.438,0.432 4.431,-1.239 8.236,-6.216 6.543,-10.776 -0.376,-1.042 -0.973,-2.027 -1.765,-2.924 -4.359,-4.842 -13.258,-6.417 -14.033,-1.536 -0.106,0.624 -0.109,1.24 -0.006,1.852 1.008,5.88 10.234,5.935 15.713,4.935 0.094,-0.017 0.196,-0.038 0.305,-0.062 0.927,-0.208 2.701,-0.788 3.495,-0.928 z"
         id="path15384" />
      <path
         style="fill:none;fill-opacity:1;stroke:#0000ff;stroke-width:0.880258px;stroke-linecap:butt;stroke-linejoin:miter;stroke-miterlimit:4;stroke-dasharray:none;stroke-opacity:1"
         d="m 367.27783,23.710564 c 7.955,-1.398 5.751,-10.802 -1.703,-9.646 -0.462,0.071 -0.937,0.179 -1.423,0.325 -6.974,2.104 -8.604,7.065 -7.508,12.346 0.2,0.961 0.508,1.902 0.9,2.813 2.137,5.02 9.286,5.081 11.471,1.055 0.646,-1.122 0.961,-2.556 0.738,-4.27 -0.989,-7.64 -3.402,-10.92 -11.024,-10.643 -0.032,10e-4 -0.063,0.003 -0.095,0.004 -6.474,0.363 -13.134,15.435 -5.535,17.529 1.454,0.483 3.041,0.391 4.61,-0.191 4.34,-1.635 7.81,-6.686 5.738,-11.169 -0.461,-1.012 -1.126,-1.952 -1.947,-2.795 -4.59,-4.659 -13.352,-6.001 -13.806,-0.883 -0.061,0.647 -0.026,1.259 0.101,1.841 1.245,5.638 10.335,5.66 15.73,4.665 0.091,-0.017 0.192,-0.038 0.3,-0.063 0.942,-0.217 2.672,-0.781 3.453,-0.918 z"
         id="path15386" />
    </g>
  </g>
</svg>
