<?xml version="1.0" encoding="UTF-8" standalone="no"?>
<svg
   xmlns:dc="http://purl.org/dc/elements/1.1/"
   xmlns:cc="http://creativecommons.org/ns#"
   xmlns:rdf="http://www.w3.org/1999/02/22-rdf-syntax-ns#"
   xmlns:svg="http://www.w3.org/2000/svg"
   xmlns="http://www.w3.org/2000/svg"
   xmlns:sodipodi="http://sodipodi.sourceforge.net/DTD/sodipodi-0.dtd"
   xmlns:inkscape="http://www.inkscape.org/namespaces/inkscape"
   version="1.1"
   id="svg357"
   xml:space="preserve"
   width="681.44769"
   height="406.29816"
   viewBox="0 0 681.44767 406.29817"
   sodipodi:docname="homotonie.svg"
   inkscape:version="1.0.2-2 (e86c870879, 2021-01-15)"><metadata
     id="metadata363"><rdf:RDF><cc:Work
         rdf:about=""><dc:format>image/svg+xml</dc:format><dc:type
           rdf:resource="http://purl.org/dc/dcmitype/StillImage" /><dc:title></dc:title></cc:Work></rdf:RDF></metadata><defs
     id="defs361" /><sodipodi:namedview
     pagecolor="#ffffff"
     bordercolor="#666666"
     borderopacity="1"
     objecttolerance="10"
     gridtolerance="10"
     guidetolerance="10"
     inkscape:pageopacity="0"
     inkscape:pageshadow="2"
     inkscape:window-width="1816"
     inkscape:window-height="1030"
     id="namedview359"
     showgrid="false"
     inkscape:zoom="1.0298261"
     inkscape:cx="482.0541"
     inkscape:cy="352.63969"
     inkscape:window-x="64"
     inkscape:window-y="0"
     inkscape:window-maximized="0"
     inkscape:current-layer="g365"
     inkscape:document-rotation="0"
     fit-margin-top="10"
     lock-margins="true"
     fit-margin-left="10"
     fit-margin-right="10"
     fit-margin-bottom="10" /><g
     id="g365"
     inkscape:groupmode="layer"
     inkscape:label="homotonie"
     transform="matrix(1.3333333,0,0,-1.3333333,-52.33007,1113.6801)"><g
       id="g1876"
       transform="matrix(0.85150878,0,0,0.89522754,189.44191,91.310001)"><path
         d="m 112.09375,812.99512 c 6.90332,6.52588 21.56641,12.25195 32.76611,5.85205 20.02002,-11.43994 29.3335,-32.53321 23.04004,-54.5127"
         style="fill:none;stroke:#231f20;stroke-width:2;stroke-linecap:butt;stroke-linejoin:miter;stroke-miterlimit:4;stroke-dasharray:none;stroke-opacity:1"
         id="path369" /><path
         d="m 85.14453,734.58203 c -4.09814,23.58936 6.22119,52.94824 20.23096,70.94678"
         style="fill:none;stroke:#231f20;stroke-width:2;stroke-linecap:butt;stroke-linejoin:miter;stroke-miterlimit:4;stroke-dasharray:none;stroke-opacity:1"
         id="path371" /><path
         d="m 108.65674,701.09229 c -6.65479,3.87353 -12.59424,9.34521 -17.12988,16.44433 -1.40674,2.20166 -2.59082,4.53565 -3.56934,6.97608"
         style="fill:none;stroke:#231f20;stroke-width:2;stroke-linecap:butt;stroke-linejoin:miter;stroke-miterlimit:4;stroke-dasharray:none;stroke-opacity:1"
         id="path373" /><path
         d="m 136.2876,772.23926 c 5.64844,-1.01465 11.04541,-2.67237 15.99853,-5.08203 28.50733,-13.86866 31.39258,-49.62061 10.12647,-64.81055 -11.77442,-8.41016 -27.90674,-10.52637 -42.59864,-6.0957"
         style="fill:none;stroke:#231f20;stroke-width:2;stroke-linecap:butt;stroke-linejoin:miter;stroke-miterlimit:4;stroke-dasharray:none;stroke-opacity:1"
         id="path375" /><path
         d="m 94.26807,770.01465 c 9.65625,2.40283 19.89453,3.72314 29.80517,3.44775"
         style="fill:none;stroke:#231f20;stroke-width:2;stroke-linecap:butt;stroke-linejoin:miter;stroke-miterlimit:4;stroke-dasharray:none;stroke-opacity:1"
         id="path377" /><path
         d="m 126.25977,725.12012 c -5.91797,-20.41065 -17.40918,-38.8501 -36.75831,-39.98828 -34.43066,-2.02539 -48.60791,29.3667 -42.53173,54.68359 2.2749,9.47656 16.59521,19.79102 35.05517,26.47559"
         style="fill:none;stroke:#231f20;stroke-width:2;stroke-linecap:butt;stroke-linejoin:miter;stroke-miterlimit:4;stroke-dasharray:none;stroke-opacity:1"
         id="path379" /><path
         d="m 57.85693,761.10596 c -7.47461,19.01855 -8.56201,43.30273 9.36621,53.64599 21.94629,12.66114 59.74659,-4.05078 63.79737,-45.56982 0.76855,-7.87695 0.36523,-18.83643 -1.60205,-30.24561"
         style="fill:none;stroke:#231f20;stroke-width:2;stroke-linecap:butt;stroke-linejoin:miter;stroke-miterlimit:4;stroke-dasharray:none;stroke-opacity:1"
         id="path381" /><path
         d="m 163.28662,751.8252 c -4.20605,-5.77637 -11.94238,-10.15381 -27.20264,-16.06055 -38.06884,-14.73633 -51.64599,-8.10156 -64.81005,4.05078 -2.73829,2.52734 -5.4458,5.99072 -7.91016,10.06787"
         style="fill:none;stroke:#231f20;stroke-width:2;stroke-linecap:butt;stroke-linejoin:miter;stroke-miterlimit:4;stroke-dasharray:none;stroke-opacity:1"
         id="path383" /></g><g
       id="g1898"
       transform="translate(-2.4271317,1.6197207)"><path
         d="m 233.23096,642.00537 c 5.52343,5.22119 17.25293,9.80176 26.21338,4.68213 16.01611,-9.15234 29.14062,-27.85645 24.10693,-45.43994"
         style="fill:none;stroke:#231f20;stroke-width:2;stroke-linecap:butt;stroke-linejoin:miter;stroke-miterlimit:4;stroke-dasharray:none;stroke-opacity:1"
         id="path385" /><path
         d="m 211.67139,579.2749 c -3.27881,18.87207 4.97754,42.35889 16.18506,56.75781"
         style="fill:none;stroke:#231f20;stroke-width:2;stroke-linecap:butt;stroke-linejoin:miter;stroke-miterlimit:4;stroke-dasharray:none;stroke-opacity:1"
         id="path387" /><path
         d="m 230.48145,552.4834 c -5.32422,3.09863 -10.07569,7.47607 -13.70362,13.15576 -1.12597,1.76074 -2.07373,3.62793 -2.85547,5.58057"
         style="fill:none;stroke:#231f20;stroke-width:2;stroke-linecap:butt;stroke-linejoin:miter;stroke-miterlimit:4;stroke-dasharray:none;stroke-opacity:1"
         id="path389" /><path
         d="m 271.17773,599.11426 c 14.93262,11.51953 16.6084,-35.4126 2.3086,-45.62744 -9.41944,-6.72803 -22.32569,-8.42139 -34.0791,-4.87647"
         style="fill:none;stroke:#231f20;stroke-width:2;stroke-linecap:butt;stroke-linejoin:miter;stroke-miterlimit:4;stroke-dasharray:none;stroke-opacity:1"
         id="path391" /><path
         d="m 252.58643,609.40088 c 4.51855,-0.81201 10.07812,-3.69873 12.61767,-7.30029 4.08545,-5.79444 7.53613,-15.07813 12.80029,-7.25293"
         style="fill:none;stroke:#231f20;stroke-width:2;stroke-linecap:butt;stroke-linejoin:miter;stroke-miterlimit:4;stroke-dasharray:none;stroke-opacity:1"
         id="path393" /><path
         d="m 218.96973,607.62109 c 7.72509,1.92286 15.91601,2.97901 23.84472,2.75879"
         style="fill:none;stroke:#231f20;stroke-width:2;stroke-linecap:butt;stroke-linejoin:miter;stroke-miterlimit:4;stroke-dasharray:none;stroke-opacity:1"
         id="path395" /><path
         d="m 244.56348,571.70557 c -4.73438,-16.32813 -13.92725,-31.07959 -29.40625,-31.99073 -27.54444,-1.62011 -38.88672,23.49366 -34.02539,43.74707 1.81933,7.58106 13.27539,15.83252 28.04443,21.18018"
         style="fill:none;stroke:#231f20;stroke-width:2;stroke-linecap:butt;stroke-linejoin:miter;stroke-miterlimit:4;stroke-dasharray:none;stroke-opacity:1"
         id="path397" /><path
         d="m 189.8418,600.49463 c -5.98047,15.21484 -6.8501,34.64209 7.49218,42.9165 17.55762,10.12891 47.79786,-3.24072 51.03907,-36.45556 0.61425,-6.30176 0.2915,-15.06983 -1.28223,-24.19678"
         style="fill:none;stroke:#231f20;stroke-width:2;stroke-linecap:butt;stroke-linejoin:miter;stroke-miterlimit:4;stroke-dasharray:none;stroke-opacity:1"
         id="path399" /><path
         d="m 267.76367,593.56738 c -3.36474,-4.62109 -7.25293,-9.38672 -15.34082,-13.34619 -29.33105,-14.35937 -41.3164,-6.48144 -51.84765,3.24072 -2.19141,2.02149 -4.35694,4.79297 -6.32813,8.05469"
         style="fill:none;stroke:#231f20;stroke-width:2;stroke-linecap:butt;stroke-linejoin:miter;stroke-miterlimit:4;stroke-dasharray:none;stroke-opacity:1"
         id="path401" /></g><g
       id="g1887"
       transform="translate(0,0.15593298)"><path
         d="m 103.3335,649.22119 c 5.52246,5.22119 25.00879,4.91895 36.6665,-4.6665 15,-12.3335 15.13867,-25.08643 8.3335,-36.66699"
         style="fill:none;stroke:#231f20;stroke-width:2;stroke-linecap:butt;stroke-linejoin:miter;stroke-miterlimit:4;stroke-dasharray:none;stroke-opacity:1"
         id="path403" /><path
         d="M 78.6665,587.55469 C 78,607.55469 81.79248,623.48828 93,637.8877"
         style="fill:none;stroke:#231f20;stroke-width:2;stroke-linecap:butt;stroke-linejoin:miter;stroke-miterlimit:4;stroke-dasharray:none;stroke-opacity:1"
         id="path405" /><path
         d="m 92.21045,559.44971 c -5.32373,3.09912 -10.1582,4.00049 -12.37354,14.50683"
         style="fill:none;stroke:#231f20;stroke-width:2;stroke-linecap:butt;stroke-linejoin:miter;stroke-miterlimit:4;stroke-dasharray:none;stroke-opacity:1"
         id="path407" /><path
         d="m 119.69922,614.11035 c 4.51855,-0.81152 15.63428,-1.88916 22.96728,-10.22265 14.17725,-16.11084 -12.90966,-70.89112 -39.36279,-64.49122"
         style="fill:none;stroke:#231f20;stroke-width:2;stroke-linecap:butt;stroke-linejoin:miter;stroke-miterlimit:4;stroke-dasharray:none;stroke-opacity:1"
         id="path409" /><path
         d="m 86.08301,612.33105 c 7.72558,1.92188 15.91601,2.97852 23.84472,2.75782"
         style="fill:none;stroke:#231f20;stroke-width:2;stroke-linecap:butt;stroke-linejoin:miter;stroke-miterlimit:4;stroke-dasharray:none;stroke-opacity:1"
         id="path411" /><path
         d="m 99.46387,556.88965 c 19.20019,-8.96045 -5.11963,-17.91992 -20.05323,-17.06641 -16.85107,0.96289 -28.74804,9.79297 -31.57373,41.81348 -1.27978,14.50635 11.06153,21.56982 25.82959,26.91797"
         style="fill:none;stroke:#231f20;stroke-width:2;stroke-linecap:butt;stroke-linejoin:miter;stroke-miterlimit:4;stroke-dasharray:none;stroke-opacity:1"
         id="path413" /><path
         d="M 111.67676,576.41504 C 109.39258,568.53809 83.25049,557.74268 97.33057,545.37012"
         style="fill:none;stroke:#231f20;stroke-width:2;stroke-linecap:butt;stroke-linejoin:miter;stroke-miterlimit:4;stroke-dasharray:none;stroke-opacity:1"
         id="path415" /><path
         d="m 56.95459,605.2041 c -5.97949,15.21485 -6.84961,34.64209 7.49268,42.91651 17.55761,10.1289 47.79785,-3.24073 51.03808,-36.45557 0.61524,-6.30176 0.29248,-15.06934 -1.28125,-24.19678"
         style="fill:none;stroke:#231f20;stroke-width:2;stroke-linecap:butt;stroke-linejoin:miter;stroke-miterlimit:4;stroke-dasharray:none;stroke-opacity:1"
         id="path417" /><path
         d="M 141.29785,597.77881 C 130,578.55469 76.6665,567.22119 61.36035,596.22559"
         style="fill:none;stroke:#231f20;stroke-width:2;stroke-linecap:butt;stroke-linejoin:miter;stroke-miterlimit:4;stroke-dasharray:none;stroke-opacity:1"
         id="path419" /></g><g
       id="g1909"
       transform="translate(-7.0329439,-2.3803014)"><path
         d="m 367.56543,646.00537 c 5.52246,5.22119 17.25293,9.80176 26.21289,4.68213 16.01563,-9.15234 23.4668,-26.02637 18.43164,-43.61035"
         style="fill:none;stroke:#231f20;stroke-width:2;stroke-linecap:butt;stroke-linejoin:miter;stroke-miterlimit:4;stroke-dasharray:none;stroke-opacity:1"
         id="path421" /><path
         d="m 346.41797,586.04688 c -3.27832,18.87207 4.56543,39.58691 15.77344,53.98583"
         style="fill:none;stroke:#231f20;stroke-width:2;stroke-linecap:butt;stroke-linejoin:miter;stroke-miterlimit:4;stroke-dasharray:none;stroke-opacity:1"
         id="path423" /><path
         d="m 364.81641,556.4834 c -5.32422,3.09961 -10.07618,7.47656 -13.70411,13.15576 -1.12597,1.76074 -2.07324,3.62793 -2.85546,5.58105"
         style="fill:none;stroke:#231f20;stroke-width:2;stroke-linecap:butt;stroke-linejoin:miter;stroke-miterlimit:4;stroke-dasharray:none;stroke-opacity:1"
         id="path425" /><path
         d="m 386.9209,613.40088 c 4.51855,-0.81201 8.83594,-2.1377 12.79785,-4.06592 22.80664,-11.09424 25.11426,-39.6958 8.10156,-51.84766 -9.41992,-6.72851 -22.32617,-8.42089 -34.0791,-4.87646"
         style="fill:none;stroke:#231f20;stroke-width:2;stroke-linecap:butt;stroke-linejoin:miter;stroke-miterlimit:4;stroke-dasharray:none;stroke-opacity:1"
         id="path427" /><path
         d="m 353.30469,611.62109 c 7.72461,1.92286 15.91504,2.97901 23.84375,2.75879"
         style="fill:none;stroke:#231f20;stroke-width:2;stroke-linecap:butt;stroke-linejoin:miter;stroke-miterlimit:4;stroke-dasharray:none;stroke-opacity:1"
         id="path429" /><path
         d="m 375.8584,571.54053 c -4.73535,-16.32862 -10.8877,-26.91455 -26.36719,-27.82569 -27.54394,-1.61963 -38.88574,23.49366 -34.02539,43.74707 1.81934,7.58106 13.27637,15.83252 28.04395,21.18018"
         style="fill:none;stroke:#231f20;stroke-width:2;stroke-linecap:butt;stroke-linejoin:miter;stroke-miterlimit:4;stroke-dasharray:none;stroke-opacity:1"
         id="path431" /><path
         d="m 324.17578,604.49463 c -5.98047,15.21484 -6.85058,34.64209 7.49219,42.9165 17.55762,10.12891 47.79785,-3.24072 51.03906,-36.45556 0.61426,-6.30176 0.27149,-12.36817 -1.30176,-21.49561"
         style="fill:none;stroke:#231f20;stroke-width:2;stroke-linecap:butt;stroke-linejoin:miter;stroke-miterlimit:4;stroke-dasharray:none;stroke-opacity:1"
         id="path433" /><path
         d="m 381.83203,583.91309 c -1.70703,-17.06543 -36.95898,-5.64893 -46.92187,3.54882 -2.19141,2.02149 -4.35743,4.79297 -6.32813,8.05469"
         style="fill:none;stroke:#231f20;stroke-width:2;stroke-linecap:butt;stroke-linejoin:miter;stroke-miterlimit:4;stroke-dasharray:none;stroke-opacity:1"
         id="path435" /><path
         d="m 408.51953,597.06934 c -3.36426,-4.6211 -2.53223,-6.29688 -14.74121,-11.02246 -7.24121,-2.80469 -20.02051,7.51464 -18.77344,-6.82667"
         style="fill:none;stroke:#231f20;stroke-width:2;stroke-linecap:butt;stroke-linejoin:miter;stroke-miterlimit:4;stroke-dasharray:none;stroke-opacity:1"
         id="path437" /></g><g
       id="g1920"
       transform="translate(0,-2.3800462)"><path
         d="m 490.01563,646.00586 c 5.52246,5.22021 17.25292,9.80176 26.21289,4.68115 16.01562,-9.15137 23.46679,-26.02637 18.43164,-43.60986"
         style="fill:none;stroke:#231f20;stroke-width:2;stroke-linecap:butt;stroke-linejoin:miter;stroke-miterlimit:4;stroke-dasharray:none;stroke-opacity:1"
         id="path439" /><path
         d="m 468.45605,583.27539 c -3.27832,18.87207 4.97754,42.35791 16.18458,56.75684"
         style="fill:none;stroke:#231f20;stroke-width:2;stroke-linecap:butt;stroke-linejoin:miter;stroke-miterlimit:4;stroke-dasharray:none;stroke-opacity:1"
         id="path441" /><path
         d="m 487.26563,556.4834 c -5.32422,3.09912 -10.0752,7.47656 -13.70313,13.15527 -1.12598,1.76172 -2.07422,3.62793 -2.85547,5.58106"
         style="fill:none;stroke:#231f20;stroke-width:2;stroke-linecap:butt;stroke-linejoin:miter;stroke-miterlimit:4;stroke-dasharray:none;stroke-opacity:1"
         id="path443" /><path
         d="m 519.6416,609.94092 c 27.30664,-7.68018 27.6416,-40.30225 10.62793,-52.45362 -9.41797,-6.729 -22.32422,-8.42138 -34.07812,-4.87695"
         style="fill:none;stroke:#231f20;stroke-width:2;stroke-linecap:butt;stroke-linejoin:miter;stroke-miterlimit:4;stroke-dasharray:none;stroke-opacity:1"
         id="path445" /><path
         d="m 475.75391,611.62158 c 7.72656,1.92188 15.72754,0.8794 24.6875,6.42578"
         style="fill:none;stroke:#231f20;stroke-width:2;stroke-linecap:butt;stroke-linejoin:miter;stroke-miterlimit:4;stroke-dasharray:none;stroke-opacity:1"
         id="path447" /><path
         d="m 501.34766,575.70605 c -4.73438,-16.3291 -13.92676,-31.08007 -29.40625,-31.99169 -27.54395,-1.61963 -38.88672,23.49365 -34.02539,43.74755 1.81933,7.58155 13.27636,15.83301 28.04492,21.17969"
         style="fill:none;stroke:#231f20;stroke-width:2;stroke-linecap:butt;stroke-linejoin:miter;stroke-miterlimit:4;stroke-dasharray:none;stroke-opacity:1"
         id="path449" /><path
         d="m 508.12109,621.03418 c 20.05469,9.38672 -2.67187,-25.14844 -4.24609,-34.27539"
         style="fill:none;stroke:#231f20;stroke-width:2;stroke-linecap:butt;stroke-linejoin:miter;stroke-miterlimit:4;stroke-dasharray:none;stroke-opacity:1"
         id="path451" /><path
         d="m 446.62598,604.49512 c -5.9795,15.21484 -6.70313,34.39111 7.49218,42.91552 31.38965,18.8501 43.33692,-28.50927 55.70997,-32.35009"
         style="fill:none;stroke:#231f20;stroke-width:2;stroke-linecap:butt;stroke-linejoin:miter;stroke-miterlimit:4;stroke-dasharray:none;stroke-opacity:1"
         id="path453" /><path
         d="m 530.96973,597.06982 c -3.36426,-4.62158 -9.55469,-8.12255 -21.7627,-12.84912 -30.4541,-11.78808 -41.3164,-6.48047 -51.84765,3.24121 -2.19141,2.02149 -4.35645,4.79248 -6.32813,8.0542"
         style="fill:none;stroke:#231f20;stroke-width:2;stroke-linecap:butt;stroke-linejoin:miter;stroke-miterlimit:4;stroke-dasharray:none;stroke-opacity:1"
         id="path455" /></g></g></svg>
