<?xml version="1.0" encoding="UTF-8" standalone="no"?>
<svg
   xmlns:dc="http://purl.org/dc/elements/1.1/"
   xmlns:cc="http://creativecommons.org/ns#"
   xmlns:rdf="http://www.w3.org/1999/02/22-rdf-syntax-ns#"
   xmlns:svg="http://www.w3.org/2000/svg"
   xmlns="http://www.w3.org/2000/svg"
   xmlns:sodipodi="http://sodipodi.sourceforge.net/DTD/sodipodi-0.dtd"
   xmlns:inkscape="http://www.inkscape.org/namespaces/inkscape"
   version="1.1"
   id="svg544"
   xml:space="preserve"
   width="970.10211"
   height="534.34143"
   viewBox="0 0 970.10211 534.34142"
   sodipodi:docname="homotonie2.svg"
   inkscape:version="1.0.2-2 (e86c870879, 2021-01-15)"><metadata
     id="metadata550"><rdf:RDF><cc:Work
         rdf:about=""><dc:format>image/svg+xml</dc:format><dc:type
           rdf:resource="http://purl.org/dc/dcmitype/StillImage" /><dc:title></dc:title></cc:Work></rdf:RDF></metadata><defs
     id="defs548" /><sodipodi:namedview
     pagecolor="#ffffff"
     bordercolor="#666666"
     borderopacity="1"
     objecttolerance="10"
     gridtolerance="10"
     guidetolerance="10"
     inkscape:pageopacity="0"
     inkscape:pageshadow="2"
     inkscape:window-width="1816"
     inkscape:window-height="1030"
     id="namedview546"
     showgrid="false"
     inkscape:zoom="0.72819706"
     inkscape:cx="442.36362"
     inkscape:cy="495.79343"
     inkscape:window-x="64"
     inkscape:window-y="0"
     inkscape:window-maximized="0"
     inkscape:current-layer="g552"
     inkscape:document-rotation="0"
     fit-margin-top="10"
     fit-margin-left="10"
     fit-margin-right="10"
     fit-margin-bottom="10" /><g
     id="g552"
     inkscape:groupmode="layer"
     inkscape:label="homotonie2"
     transform="matrix(1.3333333,0,0,-1.3333333,-9.6979305,1105.3198)"><g
       id="g5030"
       transform="translate(280.14395,27.8084)"><path
         d="m 404.6875,434.90283 c 4.85742,-0.31347 20.07617,-2.99707 21.33301,14.0918 1.25976,17.17383 -29.63086,26.69433 -42.35254,26.39453 m -26.33301,-6 c 3,3 8,5.6665 15.33203,6.3335 m 0.33399,27 c 9.66699,-16.3335 7.66699,-76.66651 -28.66602,-60.00049 m 19.66602,7.66699 c -11.63672,9.95898 -21.19336,36.4292 -24.42969,50.04785 -3.23633,13.61865 14.76367,30.28565 26.0957,13.28565 m 27.00684,-77.54444 c -7.63672,1.34278 -12.2168,2.87891 -18.33887,6.87793 m -39.33398,48.99951 c -17,-6.6665 -22.33399,-29.33349 -0.24024,-42.52197 m 76.23438,25.2041 c 6.86328,57.83936 -42.44727,36.04151 -62.32813,24.98487 m -0.20605,-37.69678 c -20.19043,-19.31348 -7.58301,-48.49365 12.54004,-52.62256 17.82812,-3.6582 42.08203,13.84424 46.77148,53.13721"
         style="fill:none;stroke:#231f20;stroke-width:2;stroke-linecap:square;stroke-linejoin:bevel;stroke-miterlimit:10;stroke-dasharray:none;stroke-opacity:1"
         id="path554" /><path
         d="m 184.08789,535.62402 c 3.12988,-2.93017 5.77637,-6.09326 7.66895,-9.21386 10.49707,-17.30567 9.42675,-53.48145 4.35156,-61.3252 -5.07617,-7.84375 -27.19434,-11.40918 -29.36914,5.7041"
         style="fill:none;stroke:#231f20;stroke-width:2;stroke-linecap:square;stroke-linejoin:bevel;stroke-miterlimit:10;stroke-dasharray:none;stroke-opacity:1"
         id="path638" /><path
         d="m 135.90625,500.19043 c -2.24219,4.69922 -3.82715,10.23633 -2.8877,16.59375 2.90137,19.60889 25.31836,36.49561 42.92872,25.17725"
         style="fill:none;stroke:#231f20;stroke-width:2;stroke-linecap:square;stroke-linejoin:bevel;stroke-miterlimit:10;stroke-dasharray:none;stroke-opacity:1"
         id="path640" /><path
         d="m 193.23145,475.8916 c -4.43653,-0.31055 -8.34278,-0.4668 -11.26368,-0.4668 -9.44238,0 -25.33398,3.06446 -36.45019,12.32813"
         style="fill:none;stroke:#231f20;stroke-width:2;stroke-linecap:square;stroke-linejoin:bevel;stroke-miterlimit:10;stroke-dasharray:none;stroke-opacity:1"
         id="path642" /><path
         d="m 217.08008,478.62598 c -4.1543,-0.68067 -8.44727,-1.25196 -12.61621,-1.71485"
         style="fill:none;stroke:#231f20;stroke-width:2;stroke-linecap:square;stroke-linejoin:bevel;stroke-miterlimit:10;stroke-dasharray:none;stroke-opacity:1"
         id="path644" /><path
         d="m 202.99023,511.67383 c 25.3418,1.12793 41.67481,-7.51465 41.67481,-17.2041 0,-7.667 -7.5625,-11.52149 -16.72656,-13.70703"
         style="fill:none;stroke:#231f20;stroke-width:2;stroke-linecap:square;stroke-linejoin:bevel;stroke-miterlimit:10;stroke-dasharray:none;stroke-opacity:1"
         id="path646" /><path
         d="m 173.63965,512.37402 c 5.90918,0.38868 11.98242,0.24024 17.76465,-0.0439"
         style="fill:none;stroke:#231f20;stroke-width:2;stroke-linecap:square;stroke-linejoin:bevel;stroke-miterlimit:10;stroke-dasharray:none;stroke-opacity:1"
         id="path648" /><path
         d="m 221.25195,505.38574 c 1.81641,-21.6289 7.7461,-66.91699 -31.30664,-70.25 -41.93261,-3.5791 -61.76172,30.37793 -50.39941,58.11524 4.02734,9.83496 12.09863,14.85547 21.70801,17.28711"
         style="fill:none;stroke:#231f20;stroke-width:2;stroke-linecap:square;stroke-linejoin:bevel;stroke-miterlimit:10;stroke-dasharray:none;stroke-opacity:1"
         id="path650" /><path
         d="m 165.28906,487.54688 c -1.08789,22.10546 9.78907,60.96923 30.81934,60.25585 21.03027,-0.71337 23.86133,-21.75293 24.22363,-30.66699"
         style="fill:none;stroke:#231f20;stroke-width:2;stroke-linecap:square;stroke-linejoin:bevel;stroke-miterlimit:10;stroke-dasharray:none;stroke-opacity:1"
         id="path652" /><path
         d="m 181.16504,531.13574 v -6.5"
         style="fill:none;stroke:#231f20;stroke-width:1;stroke-linecap:round;stroke-linejoin:bevel;stroke-miterlimit:10;stroke-dasharray:none;stroke-opacity:1"
         id="path654" /><path
         d="m 181.16504,524.63574 -1.625,2.375"
         style="fill:none;stroke:#231f20;stroke-width:1;stroke-linecap:round;stroke-linejoin:bevel;stroke-miterlimit:10;stroke-dasharray:none;stroke-opacity:1"
         id="path656" /><path
         d="m 181.16504,524.63574 1.5,2.5"
         style="fill:none;stroke:#231f20;stroke-width:1;stroke-linecap:round;stroke-linejoin:bevel;stroke-miterlimit:10;stroke-dasharray:none;stroke-opacity:1"
         id="path658" /><path
         d="m 180.04004,531.51074 2.125,-0.125"
         style="fill:none;stroke:#231f20;stroke-width:1;stroke-linecap:square;stroke-linejoin:bevel;stroke-miterlimit:10;stroke-dasharray:none;stroke-opacity:1"
         id="path660" /><path
         d="m 181.69287,479.88525 -0.0591,6.5"
         style="fill:none;stroke:#231f20;stroke-width:1;stroke-linecap:round;stroke-linejoin:bevel;stroke-miterlimit:10;stroke-dasharray:none;stroke-opacity:1"
         id="path662" /><path
         d="m 181.63379,486.38525 1.64648,-2.36035"
         style="fill:none;stroke:#231f20;stroke-width:1;stroke-linecap:round;stroke-linejoin:bevel;stroke-miterlimit:10;stroke-dasharray:none;stroke-opacity:1"
         id="path664" /><path
         d="m 181.63379,486.38525 -1.47705,-2.51367"
         style="fill:none;stroke:#231f20;stroke-width:1;stroke-linecap:round;stroke-linejoin:bevel;stroke-miterlimit:10;stroke-dasharray:none;stroke-opacity:1"
         id="path666" /><path
         d="m 182.82129,479.52051 -2.12598,0.10547"
         style="fill:none;stroke:#231f20;stroke-width:1;stroke-linecap:square;stroke-linejoin:bevel;stroke-miterlimit:10;stroke-dasharray:none;stroke-opacity:1"
         id="path668" /><text
         transform="matrix(1,0,0,-1,230.50049,457.88867)"
         style="font-variant:normal;font-weight:normal;font-size:12px;font-family:Myriad;-inkscape-font-specification:Myriad-Roman;writing-mode:lr-tb;fill:#231f20;fill-opacity:1;fill-rule:nonzero;stroke:none"
         id="text672"><tspan
           x="0 6.7680001 12.78 15.588 22.187401 27.57552 33.31152 37.28352 40.091518 46.67952 53.33952 55.883518 59.56752 63.251518 66.935516"
           y="0"
           sodipodi:role="line"
           id="tspan670">délocation ---&gt;</tspan></text></g><g
       id="g5009"
       transform="translate(-131.83245,58.706638)"><text
         transform="matrix(1,0,0,-1,168.49512,694.38574)"
         style="font-variant:normal;font-weight:normal;font-size:8px;font-family:Myriad;-inkscape-font-specification:Myriad-Roman;writing-mode:lr-tb;fill:#231f20;fill-opacity:1;fill-rule:nonzero;stroke:none"
         id="text558"><tspan
           x="0 4.0079999"
           y="0"
           sodipodi:role="line"
           id="tspan556">e'</tspan></text><text
         transform="matrix(1,0,0,-1,191.49512,706.05225)"
         style="font-variant:normal;font-weight:normal;font-size:8px;font-family:Myriad;-inkscape-font-specification:Myriad-Roman;writing-mode:lr-tb;fill:#231f20;fill-opacity:1;fill-rule:nonzero;stroke:none"
         id="text562"><tspan
           x="0 3.8559999"
           y="0"
           sodipodi:role="line"
           id="tspan560">a'</tspan></text><text
         transform="matrix(1,0,0,-1,208.16211,736.38623)"
         style="font-variant:normal;font-weight:normal;font-size:8px;font-family:Myriad;-inkscape-font-specification:Myriad-Roman;writing-mode:lr-tb;fill:#231f20;fill-opacity:1;fill-rule:nonzero;stroke:none"
         id="text566"><tspan
           x="0"
           y="0"
           id="tspan564">a</tspan></text><text
         transform="matrix(1,0,0,-1,219.16113,708.05273)"
         style="font-variant:normal;font-weight:normal;font-size:8px;font-family:Myriad;-inkscape-font-specification:Myriad-Roman;writing-mode:lr-tb;fill:#231f20;fill-opacity:1;fill-rule:nonzero;stroke:none"
         id="text570"><tspan
           x="0"
           y="0"
           id="tspan568">e</tspan></text><path
         d="m 214.91797,726.87451 c 3.12988,-2.93017 5.77637,-6.09326 7.66894,-9.21387 10.49707,-17.30566 9.42676,-53.48144 4.35157,-61.32519 -5.07618,-7.84375 -27.19434,-11.40918 -29.36914,5.7041"
         style="fill:none;stroke:#231f20;stroke-width:2;stroke-linecap:square;stroke-linejoin:bevel;stroke-miterlimit:10;stroke-dasharray:none;stroke-opacity:1"
         id="path572" /><path
         d="m 166.73633,691.44141 c -2.24219,4.69922 -3.82715,10.23584 -2.8877,16.59277 2.90137,19.60937 25.31836,36.49609 42.92871,25.17773"
         style="fill:none;stroke:#231f20;stroke-width:2;stroke-linecap:square;stroke-linejoin:bevel;stroke-miterlimit:10;stroke-dasharray:none;stroke-opacity:1"
         id="path574" /><path
         d="m 224.06152,667.14209 c -4.43652,-0.31055 -8.34277,-0.4668 -11.26367,-0.4668 -9.44238,0 -25.33398,3.06446 -36.45019,12.32813"
         style="fill:none;stroke:#231f20;stroke-width:2;stroke-linecap:square;stroke-linejoin:bevel;stroke-miterlimit:10;stroke-dasharray:none;stroke-opacity:1"
         id="path576" /><path
         d="m 247.91016,669.87646 c -4.1543,-0.68066 -8.44727,-1.25195 -12.61621,-1.71484"
         style="fill:none;stroke:#231f20;stroke-width:2;stroke-linecap:square;stroke-linejoin:bevel;stroke-miterlimit:10;stroke-dasharray:none;stroke-opacity:1"
         id="path578" /><path
         d="m 233.82031,702.92432 c 25.3418,1.12841 41.67481,-7.51514 41.67481,-17.20459 0,-7.66651 -7.5625,-11.521 -16.72657,-13.70655"
         style="fill:none;stroke:#231f20;stroke-width:2;stroke-linecap:square;stroke-linejoin:bevel;stroke-miterlimit:10;stroke-dasharray:none;stroke-opacity:1"
         id="path580" /><path
         d="m 204.46973,703.62451 c 5.90918,0.38867 11.98242,0.23975 17.76465,-0.0439"
         style="fill:none;stroke:#231f20;stroke-width:2;stroke-linecap:square;stroke-linejoin:bevel;stroke-miterlimit:10;stroke-dasharray:none;stroke-opacity:1"
         id="path582" /><path
         d="m 252.08203,696.63623 c 1.81641,-21.62891 7.7461,-66.91699 -31.30664,-70.25 -41.93262,-3.5791 -61.76172,30.37793 -50.39941,58.11572 4.02734,9.83448 12.09863,14.85498 21.708,17.28614"
         style="fill:none;stroke:#231f20;stroke-width:2;stroke-linecap:square;stroke-linejoin:bevel;stroke-miterlimit:10;stroke-dasharray:none;stroke-opacity:1"
         id="path584" /><path
         d="m 196.11914,678.79736 c -1.08789,22.10547 9.78906,60.96924 30.81934,60.25586 21.03027,-0.71338 23.86132,-21.75342 24.22363,-30.66699"
         style="fill:none;stroke:#231f20;stroke-width:2;stroke-linecap:square;stroke-linejoin:bevel;stroke-miterlimit:10;stroke-dasharray:none;stroke-opacity:1"
         id="path586" /><text
         transform="matrix(1,0,0,-0.99009813,422.38867,759.51172)"
         style="font-variant:normal;font-weight:normal;font-size:6.7159px;font-family:Myriad;-inkscape-font-specification:Myriad-Roman;writing-mode:lr-tb;fill:#231f20;fill-opacity:1;fill-rule:nonzero;stroke:none"
         id="text676"><tspan
           x="0"
           y="0"
           id="tspan674">a</tspan></text><path
         d="m 442.81543,743.71973 c 1.46973,-4.57178 5.68262,-50.4585 1.42187,-56.97803 -4.26171,-6.51953 -22.8291,-9.48291 -24.65527,4.74121"
         style="fill:none;stroke:#231f20;stroke-width:2;stroke-linecap:square;stroke-linejoin:bevel;stroke-miterlimit:10;stroke-dasharray:none;stroke-opacity:1"
         id="path678" /><path
         d="m 393.69824,715.9209 c -1.88281,3.90625 -3.68066,8.59717 -2.4248,13.7915 2.43164,10.05908 13.55566,20.44873 30.34472,19.61768"
         style="fill:none;stroke:#231f20;stroke-width:2;stroke-linecap:square;stroke-linejoin:bevel;stroke-miterlimit:10;stroke-dasharray:none;stroke-opacity:1"
         id="path680" /><path
         d="m 441.82227,695.72412 c -3.72461,-0.2583 -7.00391,-0.38818 -9.45606,-0.38818 -7.92676,0 -21.26758,2.54736 -30.59961,10.24707"
         style="fill:none;stroke:#231f20;stroke-width:2;stroke-linecap:square;stroke-linejoin:bevel;stroke-miterlimit:10;stroke-dasharray:none;stroke-opacity:1"
         id="path682" /><path
         d="m 461.84277,697.99707 c -3.4873,-0.56592 -7.09179,-1.04102 -10.59082,-1.42578"
         style="fill:none;stroke:#231f20;stroke-width:2;stroke-linecap:square;stroke-linejoin:bevel;stroke-miterlimit:10;stroke-dasharray:none;stroke-opacity:1"
         id="path684" /><path
         d="M 450.01465,725.46533 C 471.28906,726.40332 485,719.21875 485,711.16553 c 0,-6.37256 -6.34863,-9.57617 -14.04199,-11.39258"
         style="fill:none;stroke:#231f20;stroke-width:2;stroke-linecap:square;stroke-linejoin:bevel;stroke-miterlimit:10;stroke-dasharray:none;stroke-opacity:1"
         id="path686" /><path
         d="m 425.375,726.04736 c 4.96094,0.32325 10.05859,0.19922 14.91309,-0.0366"
         style="fill:none;stroke:#231f20;stroke-width:2;stroke-linecap:square;stroke-linejoin:bevel;stroke-miterlimit:10;stroke-dasharray:none;stroke-opacity:1"
         id="path688" /><path
         d="m 465.34473,720.23877 c 1.52539,-17.97705 6.50293,-55.61963 -26.28125,-58.39014 -35.20215,-2.97461 -51.84864,25.24951 -42.30957,48.30469 3.38086,8.17383 10.15625,12.34668 18.22363,14.36768"
         style="fill:none;stroke:#231f20;stroke-width:2;stroke-linecap:square;stroke-linejoin:bevel;stroke-miterlimit:10;stroke-dasharray:none;stroke-opacity:1"
         id="path690" /><path
         d="m 431.48242,749.12207 c 22.2461,0.20801 32.11035,-6.85693 33.08985,-19.1167"
         style="fill:none;stroke:#231f20;stroke-width:2;stroke-linecap:square;stroke-linejoin:bevel;stroke-miterlimit:10;stroke-dasharray:none;stroke-opacity:1"
         id="path692" /><path
         d="m 418.36426,705.41162 c -0.58692,11.80859 10.17969,72.17822 21.72265,46.61963"
         style="fill:none;stroke:#231f20;stroke-width:2;stroke-linecap:square;stroke-linejoin:bevel;stroke-miterlimit:10;stroke-dasharray:none;stroke-opacity:1"
         id="path694" /><text
         transform="matrix(1,0,0,-0.91735689,351.07422,618.92725)"
         style="font-variant:normal;font-weight:normal;font-size:7.28506px;font-family:Myriad;-inkscape-font-specification:Myriad-Roman;writing-mode:lr-tb;fill:#231f20;fill-opacity:1;fill-rule:nonzero;stroke:none"
         id="text698"><tspan
           x="0"
           y="0"
           id="tspan696">e</tspan></text><path
         d="m 348.87402,630.90137 c -15.02539,1.6709 11.83887,-32.58008 2.90821,-47.03272 -4.19532,-6.78955 -24.76368,-9.53076 -26.74414,4.76514"
         style="fill:none;stroke:#231f20;stroke-width:2;stroke-linecap:square;stroke-linejoin:bevel;stroke-miterlimit:10;stroke-dasharray:none;stroke-opacity:1"
         id="path700" /><path
         d="m 341.13379,644.47607 c 5.91894,-2.08837 24.35937,-18.58691 7.51269,-20.04882"
         style="fill:none;stroke:#231f20;stroke-width:2;stroke-linecap:square;stroke-linejoin:bevel;stroke-miterlimit:10;stroke-dasharray:none;stroke-opacity:1"
         id="path702" /><path
         d="m 296.95996,613.1958 c -2.04199,3.92529 -3.48535,8.55078 -2.62988,13.86084 2.64209,16.38135 21.30566,30.57715 35.64844,22.01416"
         style="fill:none;stroke:#231f20;stroke-width:2;stroke-linecap:square;stroke-linejoin:bevel;stroke-miterlimit:10;stroke-dasharray:none;stroke-opacity:1"
         id="path704" /><path
         d="m 349.16211,592.89648 c -4.04004,-0.25927 -7.59668,-0.39013 -10.25684,-0.39013 -8.59863,0 -23.07031,2.56006 -33.19336,10.29883"
         style="fill:none;stroke:#231f20;stroke-width:2;stroke-linecap:square;stroke-linejoin:bevel;stroke-miterlimit:10;stroke-dasharray:none;stroke-opacity:1"
         id="path706" /><path
         d="m 370.87988,595.18066 c -3.7832,-0.56836 -7.69238,-1.04589 -11.48828,-1.43261"
         style="fill:none;stroke:#231f20;stroke-width:2;stroke-linecap:square;stroke-linejoin:bevel;stroke-miterlimit:10;stroke-dasharray:none;stroke-opacity:1"
         id="path708" /><path
         d="M 359.57422,629.43945 C 380.29102,624.84473 396,616.51025 396,608.41602 c 0,-6.40479 -6.88672,-9.62452 -15.23145,-11.4502"
         style="fill:none;stroke:#231f20;stroke-width:2;stroke-linecap:square;stroke-linejoin:bevel;stroke-miterlimit:10;stroke-dasharray:none;stroke-opacity:1"
         id="path710" /><path
         d="m 331.32129,623.37305 c 5.38086,0.3247 1.84473,0.01 7.30859,0.42773"
         style="fill:none;stroke:#231f20;stroke-width:2;stroke-linecap:square;stroke-linejoin:bevel;stroke-miterlimit:10;stroke-dasharray:none;stroke-opacity:1"
         id="path712" /><path
         d="m 374.67871,617.53516 c 1.6543,-18.06836 7.05469,-55.90088 -28.50879,-58.68555 -38.18554,-2.98975 -56.24267,25.37744 -45.89551,48.54883 3.667,8.21582 11.01758,12.40967 19.76856,14.44043"
         style="fill:none;stroke:#231f20;stroke-width:2;stroke-linecap:square;stroke-linejoin:bevel;stroke-miterlimit:10;stroke-dasharray:none;stroke-opacity:1"
         id="path714" /><path
         d="m 323.7168,602.63281 c -0.99024,18.4668 11.84765,59.77735 30.84863,57.50684 16.89844,-2.01904 19.02148,-21.37451 19.35156,-28.8208"
         style="fill:none;stroke:#231f20;stroke-width:2;stroke-linecap:square;stroke-linejoin:bevel;stroke-miterlimit:10;stroke-dasharray:none;stroke-opacity:1"
         id="path716" /><text
         transform="matrix(1,0,0,-1,203,597.88965)"
         style="font-variant:normal;font-weight:normal;font-size:12px;font-family:Myriad;-inkscape-font-specification:Myriad-Roman;writing-mode:lr-tb;fill:#231f20;fill-opacity:1;fill-rule:nonzero;stroke:none"
         id="text720"><tspan
           x="0 5.7839999 12.552 15.36 21.95952 27.347639 33.083641 37.055641 39.86364 46.451641 53.111641 55.65564 61.667641 64.211639 67.895638 71.579643 75.263641"
           y="0"
           sodipodi:role="line"
           id="tspan718">adlocation e ---&gt;</tspan></text><text
         transform="matrix(1,0,0,-1,290,690.88965)"
         style="font-variant:normal;font-weight:normal;font-size:12px;font-family:Myriad;-inkscape-font-specification:Myriad-Roman;writing-mode:lr-tb;fill:#231f20;fill-opacity:1;fill-rule:nonzero;stroke:none"
         id="text724"><tspan
           x="0 5.7839999 12.552 15.36 21.959999 27.347639 33.084 37.056 39.863998 46.452 53.112"
           y="0"
           sodipodi:role="line"
           id="tspan722">adlocation </tspan></text><text
         transform="matrix(1,0,0,-1,345.656,690.88965)"
         style="font-variant:normal;font-weight:bold;font-size:12px;font-family:Myriad;-inkscape-font-specification:Myriad-Bold;writing-mode:lr-tb;fill:#231f20;fill-opacity:1;fill-rule:nonzero;stroke:none"
         id="text728"><tspan
           x="0"
           y="0"
           id="tspan726">a</tspan></text><text
         transform="matrix(1,0,0,-1,354.536,690.88965)"
         style="font-variant:normal;font-weight:normal;font-size:12px;font-family:Myriad;-inkscape-font-specification:Myriad-Roman;writing-mode:lr-tb;fill:#231f20;fill-opacity:1;fill-rule:nonzero;stroke:none"
         id="text732"><tspan
           x="0 3.684 7.368 11.052"
           y="0"
           sodipodi:role="line"
           id="tspan730">---&gt;</tspan></text></g><g
       id="g5055"
       transform="translate(-110.20369,173.03009)"><path
         d="m 177.32129,391.15039 c 3.12988,-2.92969 5.77637,-6.09375 7.66894,-9.21387 10.49707,-17.30566 9.42676,-53.48144 4.35157,-61.32519 -5.07617,-7.84375 -27.19434,-11.40918 -29.36914,5.7041"
         style="fill:none;stroke:#231f20;stroke-width:2;stroke-linecap:square;stroke-linejoin:bevel;stroke-miterlimit:10;stroke-dasharray:none;stroke-opacity:1"
         id="path588" /><path
         d="m 129.13965,355.7168 c -2.24219,4.69922 -3.82715,10.23633 -2.8877,16.59375 2.90137,19.60937 25.31836,36.49609 42.92871,25.17773"
         style="fill:none;stroke:#231f20;stroke-width:2;stroke-linecap:square;stroke-linejoin:bevel;stroke-miterlimit:10;stroke-dasharray:none;stroke-opacity:1"
         id="path590" /><path
         d="m 186.46484,331.41797 c -4.43652,-0.31055 -8.34277,-0.4668 -11.26367,-0.4668 -9.44238,0 -25.33398,3.06446 -36.45019,12.32813"
         style="fill:none;stroke:#231f20;stroke-width:2;stroke-linecap:square;stroke-linejoin:bevel;stroke-miterlimit:10;stroke-dasharray:none;stroke-opacity:1"
         id="path592" /><path
         d="m 210.31348,334.15234 c -4.1543,-0.68066 -8.44727,-1.25195 -12.61621,-1.71484"
         style="fill:none;stroke:#231f20;stroke-width:2;stroke-linecap:square;stroke-linejoin:bevel;stroke-miterlimit:10;stroke-dasharray:none;stroke-opacity:1"
         id="path594" /><path
         d="m 196.22363,367.2002 c 25.3418,1.12793 41.67481,-7.51465 41.67481,-17.20411 0,-7.66699 -7.5625,-11.52148 -16.72656,-13.70703"
         style="fill:none;stroke:#231f20;stroke-width:2;stroke-linecap:square;stroke-linejoin:bevel;stroke-miterlimit:10;stroke-dasharray:none;stroke-opacity:1"
         id="path596" /><path
         d="m 166.87305,367.90039 c 5.90918,0.38867 11.98242,0.24024 17.76465,-0.0439"
         style="fill:none;stroke:#231f20;stroke-width:2;stroke-linecap:square;stroke-linejoin:bevel;stroke-miterlimit:10;stroke-dasharray:none;stroke-opacity:1"
         id="path598" /><path
         d="m 214.48535,360.91211 c 1.81641,-21.62891 7.7461,-66.91699 -31.30664,-70.25 -41.93262,-3.5791 -61.76172,30.37793 -50.39941,58.11523 4.02734,9.83496 12.09863,14.85547 21.708,17.28711"
         style="fill:none;stroke:#231f20;stroke-width:2;stroke-linecap:square;stroke-linejoin:bevel;stroke-miterlimit:10;stroke-dasharray:none;stroke-opacity:1"
         id="path600" /><path
         d="m 158.52246,343.07324 c -1.08789,22.10547 9.78906,60.96973 30.81934,60.25586 21.03027,-0.71387 23.86133,-21.75293 24.22363,-30.66699"
         style="fill:none;stroke:#231f20;stroke-width:2;stroke-linecap:square;stroke-linejoin:bevel;stroke-miterlimit:10;stroke-dasharray:none;stroke-opacity:1"
         id="path602" /><text
         transform="matrix(1,0,0,-1,171.56543,303.99512)"
         style="font-variant:normal;font-weight:normal;font-size:8px;font-family:Myriad;-inkscape-font-specification:Myriad-Roman;writing-mode:lr-tb;fill:#231f20;fill-opacity:1;fill-rule:nonzero;stroke:none"
         id="text606"><tspan
           x="0"
           y="0"
           id="tspan604">t</tspan></text><path
         d="m 165.89844,312.66211 c 0,0 -0.33301,-4 -4,-4"
         style="fill:none;stroke:#231f20;stroke-width:1;stroke-linecap:round;stroke-linejoin:miter;stroke-miterlimit:4;stroke-dasharray:none;stroke-opacity:1"
         id="path608" /><path
         d="m 163.14844,310.91211 -1.25,-2.25"
         style="fill:none;stroke:#231f20;stroke-width:1;stroke-linecap:round;stroke-linejoin:miter;stroke-miterlimit:4;stroke-dasharray:none;stroke-opacity:1"
         id="path610" /><path
         d="m 161.89844,308.66211 1.83301,-1.41699"
         style="fill:none;stroke:#231f20;stroke-width:1;stroke-linecap:round;stroke-linejoin:miter;stroke-miterlimit:4;stroke-dasharray:none;stroke-opacity:1"
         id="path612" /><path
         d="m 385.40918,381.25195 c 2.54687,-2.64941 4.7002,-5.51074 6.24023,-8.33203 8.54102,-15.65137 -6.88086,-49.125 -28.57812,-48.2207"
         style="fill:none;stroke:#231f20;stroke-width:2;stroke-linecap:square;stroke-linejoin:bevel;stroke-miterlimit:10;stroke-dasharray:none;stroke-opacity:1"
         id="path734" /><path
         d="m 334.59277,321.98633 c -11.93359,11.45508 1.62696,40.99805 6.78028,50.64551 5.65136,10.5791 21.20117,25.61035 35.53027,15.37402"
         style="fill:none;stroke:#231f20;stroke-width:2;stroke-linecap:square;stroke-linejoin:bevel;stroke-miterlimit:10;stroke-dasharray:none;stroke-opacity:1"
         id="path736" /><path
         d="m 410.80664,329.82324 c -7.59473,-0.60254 -18.44336,-5.72754 -24.41016,-0.30078"
         style="fill:none;stroke:#231f20;stroke-width:2;stroke-linecap:square;stroke-linejoin:bevel;stroke-miterlimit:10;stroke-dasharray:none;stroke-opacity:1"
         id="path738" /><path
         d="m 399.95801,360.57227 c 20.61914,1.0205 34.74121,-7.77637 34.74121,-16.53907 0,-6.93359 -6.15332,-10.41992 -13.61035,-12.39648"
         style="fill:none;stroke:#231f20;stroke-width:2;stroke-linecap:square;stroke-linejoin:bevel;stroke-miterlimit:10;stroke-dasharray:none;stroke-opacity:1"
         id="path740" /><path
         d="m 375.27637,358.16113 c 4.88183,1.8086 8.31347,2.36719 13.01855,2.11035"
         style="fill:none;stroke:#231f20;stroke-width:2;stroke-linecap:square;stroke-linejoin:bevel;stroke-miterlimit:10;stroke-dasharray:none;stroke-opacity:1"
         id="path742" /><path
         d="m 344.08496,315.05176 c 21.96875,-9.94824 10.03613,34.66797 21.15527,38.88867"
         style="fill:none;stroke:#231f20;stroke-width:2;stroke-linecap:square;stroke-linejoin:bevel;stroke-miterlimit:10;stroke-dasharray:none;stroke-opacity:1"
         id="path744" /><path
         d="m 415.64844,353.90527 c 1.47851,-19.56054 1.98144,-62.66894 -29.79395,-65.68359 -12.9834,-1.23242 -37.97168,4.2207 -45.29492,15.375 -6.77637,10.32031 0,24.41797 12.74805,22.00684"
         style="fill:none;stroke:#231f20;stroke-width:2;stroke-linecap:square;stroke-linejoin:bevel;stroke-miterlimit:10;stroke-dasharray:none;stroke-opacity:1"
         id="path746" /><path
         d="m 377.98828,337.05859 c -17.3584,17.78614 -1.62695,54.86621 17.20117,55.20801 17.12012,0.31055 19.41602,-19.67285 19.71094,-27.73437"
         style="fill:none;stroke:#231f20;stroke-width:2;stroke-linecap:square;stroke-linejoin:bevel;stroke-miterlimit:10;stroke-dasharray:none;stroke-opacity:1"
         id="path748" /><text
         transform="matrix(1,0,0,-1,227.50098,313.88867)"
         style="font-variant:normal;font-weight:normal;font-size:12px;font-family:Myriad;-inkscape-font-specification:Myriad-Roman;writing-mode:lr-tb;fill:#231f20;fill-opacity:1;fill-rule:nonzero;stroke:none"
         id="text752"><tspan
           x="0 3.9719999 7.82376 13.60776 20.267759 25.01976 27.827761 34.427761 39.815399 45.551399 49.523399 52.331402 58.919399 65.579399 68.123398 71.807404 75.491402 79.1754"
           y="0"
           sodipodi:role="line"
           id="tspan750">translocation ---&gt;</tspan></text></g><g
       id="g5097"
       transform="translate(322.37153,537.62921)"><text
         transform="matrix(1,0,0,-1,136.16602,241.8877)"
         style="font-variant:normal;font-weight:normal;font-size:8px;font-family:Myriad;-inkscape-font-specification:Myriad-Roman;writing-mode:lr-tb;fill:#231f20;fill-opacity:1;fill-rule:nonzero;stroke:none"
         id="text616"><tspan
           x="0"
           y="0"
           id="tspan614">a</tspan></text><text
         transform="matrix(1,0,0,-1,147.16504,213.55371)"
         style="font-variant:normal;font-weight:normal;font-size:8px;font-family:Myriad;-inkscape-font-specification:Myriad-Roman;writing-mode:lr-tb;fill:#231f20;fill-opacity:1;fill-rule:nonzero;stroke:none"
         id="text620"><tspan
           x="0"
           y="0"
           id="tspan618">e</tspan></text><path
         d="m 142.92188,232.37598 c 3.12988,-2.92969 5.77636,-6.09375 7.66894,-9.21387 10.49707,-17.30566 9.42676,-53.48145 4.35156,-61.3252 -5.07617,-7.84375 -27.19433,-11.40918 -29.36914,5.70411"
         style="fill:none;stroke:#231f20;stroke-width:2;stroke-linecap:square;stroke-linejoin:bevel;stroke-miterlimit:10;stroke-dasharray:none;stroke-opacity:1"
         id="path622" /><path
         d="m 94.74023,196.94238 c -2.24218,4.69922 -3.82714,10.23633 -2.88769,16.59375 2.90137,19.60938 25.31836,36.4961 42.92871,25.17774"
         style="fill:none;stroke:#231f20;stroke-width:2;stroke-linecap:square;stroke-linejoin:bevel;stroke-miterlimit:10;stroke-dasharray:none;stroke-opacity:1"
         id="path624" /><path
         d="m 152.06543,172.64355 c -4.43652,-0.31054 -8.34277,-0.46679 -11.26367,-0.46679 -9.44238,0 -25.33399,3.06445 -36.4502,12.32812"
         style="fill:none;stroke:#231f20;stroke-width:2;stroke-linecap:square;stroke-linejoin:bevel;stroke-miterlimit:10;stroke-dasharray:none;stroke-opacity:1"
         id="path626" /><path
         d="m 175.91406,175.37793 c -4.15429,-0.68066 -8.44726,-1.25195 -12.61621,-1.71484"
         style="fill:none;stroke:#231f20;stroke-width:2;stroke-linecap:square;stroke-linejoin:bevel;stroke-miterlimit:10;stroke-dasharray:none;stroke-opacity:1"
         id="path628" /><path
         d="m 161.82422,208.42578 c 25.3418,1.12793 41.6748,-7.51465 41.6748,-17.2041 0,-7.66699 -7.5625,-11.52148 -16.72656,-13.70703"
         style="fill:none;stroke:#231f20;stroke-width:2;stroke-linecap:square;stroke-linejoin:bevel;stroke-miterlimit:10;stroke-dasharray:none;stroke-opacity:1"
         id="path630" /><path
         d="m 132.47363,209.12598 c 5.90918,0.38867 11.98242,0.24023 17.76465,-0.0439"
         style="fill:none;stroke:#231f20;stroke-width:2;stroke-linecap:square;stroke-linejoin:bevel;stroke-miterlimit:10;stroke-dasharray:none;stroke-opacity:1"
         id="path632" /><path
         d="m 180.08594,202.1377 c 1.8164,-21.62891 7.74609,-66.917 -31.30664,-70.25 -41.93262,-3.57911 -61.76172,30.37793 -50.39942,58.11523 4.02735,9.83496 12.09864,14.85547 21.70801,17.28711"
         style="fill:none;stroke:#231f20;stroke-width:2;stroke-linecap:square;stroke-linejoin:bevel;stroke-miterlimit:10;stroke-dasharray:none;stroke-opacity:1"
         id="path634" /><path
         d="m 124.12305,184.29883 c -1.08789,22.10547 9.78906,60.96972 30.81933,60.25586 21.03028,-0.71387 23.86133,-21.75293 24.22364,-30.66699"
         style="fill:none;stroke:#231f20;stroke-width:2;stroke-linecap:square;stroke-linejoin:bevel;stroke-miterlimit:10;stroke-dasharray:none;stroke-opacity:1"
         id="path636" /><path
         d="m 369.25,239.63867 c 11.25,3.25 -2,-30.5 -10,-39.5 -6.51172,-7.32519 -30,-12.5 -36,1.75"
         style="fill:none;stroke:#231f20;stroke-width:2;stroke-linecap:square;stroke-linejoin:bevel;stroke-miterlimit:10;stroke-dasharray:none;stroke-opacity:1"
         id="path754" /><path
         d="m 358.75,243.63867 c 6.2959,1.46387 4.25,-8.25 10.75,-9.5"
         style="fill:none;stroke:#231f20;stroke-width:2;stroke-linecap:square;stroke-linejoin:bevel;stroke-miterlimit:10;stroke-dasharray:none;stroke-opacity:1"
         id="path756" /><path
         d="m 343,264.13867 c 11.5,-7 7.75,-27.75 17.5,-26.08301"
         style="fill:none;stroke:#231f20;stroke-width:2;stroke-linecap:square;stroke-linejoin:bevel;stroke-miterlimit:10;stroke-dasharray:none;stroke-opacity:1"
         id="path758" /><path
         d="m 292.25,226.38867 c -6.75,6.5 -8.5,24.5 -2.5,31.75 10.88086,13.14746 23.5,18.5 38.75,11.5"
         style="fill:none;stroke:#231f20;stroke-width:2;stroke-linecap:square;stroke-linejoin:bevel;stroke-miterlimit:10;stroke-dasharray:none;stroke-opacity:1"
         id="path760" /><path
         d="m 360.75,210.63867 c -3.96094,-0.25781 -46.5,-13 -61,6.25"
         style="fill:none;stroke:#231f20;stroke-width:2;stroke-linecap:square;stroke-linejoin:bevel;stroke-miterlimit:10;stroke-dasharray:none;stroke-opacity:1"
         id="path762" /><path
         d="m 381.5,213.13867 c -3.70898,-0.56445 -7.27734,-0.86621 -11,-1.25"
         style="fill:none;stroke:#231f20;stroke-width:2;stroke-linecap:square;stroke-linejoin:bevel;stroke-miterlimit:10;stroke-dasharray:none;stroke-opacity:1"
         id="path764" /><path
         d="m 377.5,234.13867 c 10.75,0.25 22.25,-0.5 23,-7.60937 0.66699,-6.32032 -2.75,-10.64063 -9.25,-11.64063"
         style="fill:none;stroke:#231f20;stroke-width:2;stroke-linecap:square;stroke-linejoin:bevel;stroke-miterlimit:10;stroke-dasharray:none;stroke-opacity:1"
         id="path766" /><path
         d="m 337.09082,241.37012 c 5.27539,0.32226 8.24707,1.9209 13.40918,1.68554"
         style="fill:none;stroke:#231f20;stroke-width:2;stroke-linecap:square;stroke-linejoin:bevel;stroke-miterlimit:10;stroke-dasharray:none;stroke-opacity:1"
         id="path768" /><path
         d="m 386.75,228.88867 c 1.62109,-17.92773 -0.2373,-48.77832 -35.10156,-51.54101 C 314.21191,174.38086 273,214.88867 303.5,226.63867"
         style="fill:none;stroke:#231f20;stroke-width:2;stroke-linecap:square;stroke-linejoin:bevel;stroke-miterlimit:10;stroke-dasharray:none;stroke-opacity:1"
         id="path770" /><path
         d="m 324.25,233.88867 c 16.75,-4.25 -3,48.75 29,43 18.48926,-3.32226 33.5,-15.5 33,-37.75"
         style="fill:none;stroke:#231f20;stroke-width:2;stroke-linecap:square;stroke-linejoin:bevel;stroke-miterlimit:10;stroke-dasharray:none;stroke-opacity:1"
         id="path772" /><path
         d="m 313.25,229.88867 c 10,2.5 3.25,12.5 13.75,11.25"
         style="fill:none;stroke:#231f20;stroke-width:2;stroke-linecap:square;stroke-linejoin:bevel;stroke-miterlimit:10;stroke-dasharray:none;stroke-opacity:1"
         id="path774" /><path
         d="m 318,211.88867 c -8.5,16.5 -18.25,28.75 -3.25,24.25"
         style="fill:none;stroke:#231f20;stroke-width:2;stroke-linecap:square;stroke-linejoin:bevel;stroke-miterlimit:10;stroke-dasharray:none;stroke-opacity:1"
         id="path776" /><path
         d="m 353.25488,139.13965 c 6.5,-0.75 11.75,-2.5 12.75,-12 1.79395,-17.04102 -0.84472,-36.81934 -5.37597,-43.32129 -4.53223,-6.50098 -24.27832,-9.45703 -26.21973,4.72852"
         style="fill:none;stroke:#231f20;stroke-width:2;stroke-linecap:square;stroke-linejoin:bevel;stroke-miterlimit:10;stroke-dasharray:none;stroke-opacity:1"
         id="path778" /><path
         d="m 346.50488,157.88965 c 7.75,-2 -12.5,-16.25 -1.75,-17"
         style="fill:none;stroke:#231f20;stroke-width:2;stroke-linecap:square;stroke-linejoin:bevel;stroke-miterlimit:10;stroke-dasharray:none;stroke-opacity:1"
         id="path780" /><path
         d="m 306.88184,112.91797 c -2.00098,3.89453 -3.417,8.48437 -2.57813,13.75391 2.35742,14.79003 18.95117,39.46777 33.45117,34.21777"
         style="fill:none;stroke:#231f20;stroke-width:2;stroke-linecap:square;stroke-linejoin:bevel;stroke-miterlimit:10;stroke-dasharray:none;stroke-opacity:1"
         id="path782" /><path
         d="m 358.06055,92.77637 c -3.96094,-0.25782 -7.44825,-0.38672 -10.05567,-0.38672 -8.43066,0 -22.61816,2.54004 -32.54199,10.21875"
         style="fill:none;stroke:#231f20;stroke-width:2;stroke-linecap:square;stroke-linejoin:bevel;stroke-miterlimit:10;stroke-dasharray:none;stroke-opacity:1"
         id="path784" /><path
         d="m 379.35156,95.04297 c -3.70898,-0.56445 -7.54101,-1.03809 -11.26367,-1.42188"
         style="fill:none;stroke:#231f20;stroke-width:2;stroke-linecap:square;stroke-linejoin:bevel;stroke-miterlimit:10;stroke-dasharray:none;stroke-opacity:1"
         id="path786" /><path
         d="m 371.50488,122.63965 c 22.62403,0.93457 32.47364,-6.43262 32.47364,-14.46387 0,-6.35547 -6.75196,-9.55078 -14.93262,-11.3623"
         style="fill:none;stroke:#231f20;stroke-width:2;stroke-linecap:square;stroke-linejoin:bevel;stroke-miterlimit:10;stroke-dasharray:none;stroke-opacity:1"
         id="path788" /><path
         d="m 349.50488,124.13965 c 5.85352,0.0459 9.31543,-1.15039 11.5,-1.25"
         style="fill:none;stroke:#231f20;stroke-width:2;stroke-linecap:square;stroke-linejoin:bevel;stroke-miterlimit:10;stroke-dasharray:none;stroke-opacity:1"
         id="path790" /><path
         d="m 330.25488,115.63965 c 7.5,0.5 1.25,9.25 9,8.75"
         style="fill:none;stroke:#231f20;stroke-width:2;stroke-linecap:square;stroke-linejoin:bevel;stroke-miterlimit:10;stroke-dasharray:none;stroke-opacity:1"
         id="path792" /><path
         d="m 383.07617,117.22363 c 1.6211,-17.92773 6.91504,-55.46679 -27.94922,-58.22949 -37.43652,-2.9668 -56.51562,20.9043 -46.37207,43.89551 3.59473,8.15234 6.25,12.5 13.5,12"
         style="fill:none;stroke:#231f20;stroke-width:2;stroke-linecap:square;stroke-linejoin:bevel;stroke-miterlimit:10;stroke-dasharray:none;stroke-opacity:1"
         id="path794" /><path
         d="m 341.00488,150.13965 c -4.75,4.75 4.5,17.25 16.75,13 17.74707,-6.15723 21.5,-18 24.5,-36.17578"
         style="fill:none;stroke:#231f20;stroke-width:2;stroke-linecap:square;stroke-linejoin:bevel;stroke-miterlimit:10;stroke-dasharray:none;stroke-opacity:1"
         id="path796" /><path
         d="m 337.75488,119.88965 c 11,-1 14,22.75 9.25,25.75"
         style="fill:none;stroke:#231f20;stroke-width:2;stroke-linecap:square;stroke-linejoin:bevel;stroke-miterlimit:10;stroke-dasharray:none;stroke-opacity:1"
         id="path798" /><path
         d="m 333.11426,102.4375 c -0.21485,4.05566 -15.60938,19.20215 -3.10938,18.20215"
         style="fill:none;stroke:#231f20;stroke-width:2;stroke-linecap:square;stroke-linejoin:bevel;stroke-miterlimit:10;stroke-dasharray:none;stroke-opacity:1"
         id="path800" /><text
         transform="matrix(1,0,0,-1,189.5,221.88867)"
         style="font-variant:normal;font-weight:normal;font-size:12px;font-family:Myriad;-inkscape-font-specification:Myriad-Roman;writing-mode:lr-tb;fill:#231f20;fill-opacity:1;fill-rule:nonzero;stroke:none"
         id="text804"><tspan
           x="0 5.7839999 15.792 22.620001 25.427999 28.236 31.74 34.548 39.93552 45.67152 49.64352 52.451519 59.03952 65.699516 68.243523 74.255524 76.799522 80.483521 84.167519 87.851517"
           y="0"
           sodipodi:role="line"
           id="tspan802">amplification e ---&gt;</tspan></text><text
         transform="matrix(1,0,0,-1,196.50391,137.8877)"
         style="font-variant:normal;font-weight:normal;font-size:12px;font-family:Myriad;-inkscape-font-specification:Myriad-Roman;writing-mode:lr-tb;fill:#231f20;fill-opacity:1;fill-rule:nonzero;stroke:none"
         id="text808"><tspan
           x="0 5.7839999 15.792 22.620001 25.427999 28.236 31.74 34.548 39.93552 45.67152 49.64352 52.451519 59.03952 65.699516 68.243523 74.027519 76.571518 80.255524 83.939522 87.62352"
           y="0"
           sodipodi:role="line"
           id="tspan806">amplification a ---&gt;</tspan></text></g></g></svg>
