<?xml version="1.0" encoding="UTF-8" standalone="no"?>
<svg
   xmlns:ns3="http://ns.adobe.com/AdobeIllustrator/10.0/"
   xmlns:dc="http://purl.org/dc/elements/1.1/"
   xmlns:cc="http://creativecommons.org/ns#"
   xmlns:rdf="http://www.w3.org/1999/02/22-rdf-syntax-ns#"
   xmlns:svg="http://www.w3.org/2000/svg"
   xmlns="http://www.w3.org/2000/svg"
   xmlns:sodipodi="http://sodipodi.sourceforge.net/DTD/sodipodi-0.dtd"
   xmlns:inkscape="http://www.inkscape.org/namespaces/inkscape"
   ns3:viewOrigin="62.3208 502.7788"
   ns3:rulerOrigin="0 0"
   ns3:pageBounds="0 595.2754 841.8896 0"
   width="100"
   height="100"
   viewBox="0 0 100 100"
   overflow="visible"
   enable-background="new 0 0 258.348 467.843"
   xml:space="preserve"
   version="1.1"
   id="svg367"
   sodipodi:docname="tournure2.svg"
   inkscape:version="1.0.2-2 (e86c870879, 2021-01-15)"><metadata
   id="metadata2082"><rdf:RDF><cc:Work
       rdf:about=""><dc:format>image/svg+xml</dc:format><dc:type
         rdf:resource="http://purl.org/dc/dcmitype/StillImage" /><dc:title></dc:title></cc:Work></rdf:RDF></metadata><defs
   id="defs2080" /><sodipodi:namedview
   pagecolor="#ffffff"
   bordercolor="#666666"
   borderopacity="1"
   objecttolerance="10"
   gridtolerance="10"
   guidetolerance="10"
   inkscape:pageopacity="0"
   inkscape:pageshadow="2"
   inkscape:window-width="1902"
   inkscape:window-height="983"
   id="namedview2078"
   showgrid="false"
   inkscape:zoom="1.4672466"
   inkscape:cx="50"
   inkscape:cy="50"
   inkscape:window-x="86"
   inkscape:window-y="0"
   inkscape:window-maximized="0"
   inkscape:current-layer="svg367" />			
<g
   id="g72"
   transform="translate(0.91254418,-196.97461)">
	<path
   fill="none"
   stroke="#000000"
   d="m 36.784491,274.945 c 18.91091,3.71568 45.177033,4.45234 52.394509,-11.942 8.89612,-20.20734 -9.515223,-71.54294 -32.75526,-57.57074"
   id="path62" />
	<path
   fill="none"
   stroke="#000000"
   d="m 54.287983,229.95903 c 13.217022,-10.60325 3.471229,-22.08278 -4.4302,-25.73328 C 35.757788,197.7115 14.383241,213.14152 9.7659976,227.97144 4.7662375,244.02995 6.354,265.507 30.91,273.784"
   id="path64" />
	<path
   fill="none"
   stroke="#000000"
   d="m 60.679,271.503 c 1.5,-14 -29.5,-28 -12,-38"
   id="path66" />
	<path
   fill="none"
   stroke="#000000"
   d="m 46.053764,252.21523 c -20.504788,16.86904 -12.600247,33.03312 -1.05928,39.09752 5.980861,3.14275 17.188764,-5.26851 16.374764,-11.94551"
   id="path68" />
	<path
   fill="none"
   stroke="#000000"
   d="m 50.907487,248.73627 c 15,-11.5 -15.434988,-25.31454 0.869031,-39.5698"
   id="path70" />
</g>
<g
   id="g78"
   transform="translate(0.91254418,-196.97461)">
	<path
   fill="none"
   stroke="#000000"
   stroke-width="0.5"
   d="m 58.9,248.243 c 3.129,3.313 11.995,11.125 5.998,11.836 -5.998,0.71 -5.215,-1.42 -2.347,-4.734"
   id="path74" />
	<path
   fill="none"
   stroke="#000000"
   stroke-width="0.5"
   d="m 65.679,252.503 c 1.826,-1.656 2.086,-3.313 4.172,-4.497"
   id="path76" />
</g>
<g
   id="g84"
   transform="translate(-1.7719716,-196.97461)">
	<path
   fill="none"
   stroke="#000000"
   stroke-width="0.5"
   d="m 63.029,226.402 c 3.129,3.313 11.995,11.125 5.998,11.836 -5.998,0.71 -5.215,-1.42 -2.347,-4.734"
   id="path80" />
	<path
   fill="none"
   stroke="#000000"
   stroke-width="0.5"
   d="m 69.808,230.663 c 1.826,-1.656 2.086,-3.313 4.172,-4.497"
   id="path82" />
</g>
<g
   id="g90"
   transform="translate(-12.097032,-177.46025)">
	<path
   fill="none"
   stroke="#000000"
   stroke-width="0.5"
   d="m 48.029,187.402 c 3.129,3.313 11.995,11.125 5.998,11.836 -5.998,0.71 -5.215,-1.42 -2.347,-4.734"
   id="path86" />
	<path
   fill="none"
   stroke="#000000"
   stroke-width="0.5"
   d="m 54.808,191.663 c 1.826,-1.656 2.086,-3.313 4.172,-4.497"
   id="path88" />
</g>
<g
   id="g96"
   transform="translate(0.91254418,-196.97461)">
		<path
   fill="none"
   stroke="#000000"
   stroke-width="0.5"
   d="m 71.029,281.402 c 3.129,3.313 11.995,11.125 5.998,11.836 -5.998,0.71 -5.215,-1.42 -2.347,-4.734"
   id="path92" />
		<path
   fill="none"
   stroke="#000000"
   stroke-width="0.5"
   d="m 77.808,285.663 c 1.826,-1.656 2.086,-3.313 4.172,-4.497"
   id="path94" />
</g>
<g
   id="g102"
   transform="translate(0.91254418,-196.97461)">
		<path
   fill="none"
   stroke="#000000"
   stroke-width="0.5"
   d="m 20.029,276.402 c 3.129,3.313 11.995,11.125 5.998,11.836 -5.998,0.71 -5.215,-1.42 -2.347,-4.734"
   id="path98" />
		<path
   fill="none"
   stroke="#000000"
   stroke-width="0.5"
   d="m 26.808,280.663 c 1.826,-1.656 2.086,-3.313 4.172,-4.497"
   id="path100" />
</g>					
		
</svg>
